<svg xmlns="http://www.w3.org/2000/svg" xmlns:xlink="http://www.w3.org/1999/xlink" width="94" height="60" fill="none"><style><![CDATA[.B{fill:#fff}.C{stroke:#718491}.D{stroke-width:.7}.E{fill:#718491}.F{fill-rule:evenodd}]]></style><rect x=".6" y=".6" width="92.8" height="58.8" rx="2.4" class="B"/><rect x=".6" y=".6" width="92.8" height="58.8" rx="2.4" stroke="#8796a1" stroke-width="1.2"/><rect x="13.35" y="8.85" width="19.662" height="19.07" rx="1.054" class="B C D"/><g class="E"><path d="M15.106 18.325a.7.7 0 0 1 .702-.702h14.745a.7.7 0 1 1 0 1.404H15.809a.7.7 0 0 1-.702-.702z"/><use xlink:href="#B"/><use xlink:href="#C"/><use xlink:href="#D"/><use xlink:href="#E"/><use xlink:href="#C" x="8.425"/><use xlink:href="#F"/><use xlink:href="#G" class="F"/></g><rect x="36.669" y="8.85" width="19.662" height="19.07" rx="1.054" class="B C D"/><g class="E"><path d="M38.426 18.325a.7.7 0 0 1 .702-.702h14.745a.7.7 0 1 1 0 1.404H39.128a.7.7 0 0 1-.702-.702z"/><use xlink:href="#B" x="23.319"/><use xlink:href="#H"/><use xlink:href="#H" x="2.809"/><use xlink:href="#C" x="28.936"/><use xlink:href="#C" x="31.745"/><use xlink:href="#F" x="23.319"/><use xlink:href="#G" x="23.319" class="F"/></g><rect x="59.988" y="8.85" width="19.662" height="19.07" rx="1.054" class="B C D"/><g class="E"><path d="M61.745 18.325a.7.7 0 0 1 .702-.702h14.745a.702.702 0 1 1 0 1.404H62.447a.7.7 0 0 1-.702-.702zm3.159 2.808a.7.7 0 0 1 .702-.702h8.426a.702.702 0 1 1 0 1.404h-8.425a.7.7 0 0 1-.702-.702z"/><use xlink:href="#I"/><use xlink:href="#C" x="49.447"/><use xlink:href="#C" x="52.255"/><use xlink:href="#C" x="55.064"/><use xlink:href="#C" x="57.872"/><use xlink:href="#G" x="46.638" class="F"/></g><rect x="13.35" y="32.08" width="19.662" height="19.07" rx="1.054" class="B C D"/><g class="E"><path d="M15.106 41.555a.7.7 0 0 1 .702-.702h14.745a.7.7 0 1 1 0 1.404H15.809a.7.7 0 0 1-.702-.702z"/><use xlink:href="#B" y="23.23"/><use xlink:href="#C" y="23.23"/><use xlink:href="#D" y="23.23"/><use xlink:href="#E" y="23.23"/><use xlink:href="#C" x="8.425" y="23.23"/><use xlink:href="#F" y="23.23"/><use xlink:href="#J" class="F"/></g><rect x="36.669" y="32.08" width="19.662" height="19.07" rx="1.054" class="B C D"/><g class="E"><path d="M38.426 41.555a.7.7 0 0 1 .702-.702h14.745a.7.7 0 1 1 0 1.404H39.128a.7.7 0 0 1-.702-.702z"/><use xlink:href="#B" x="23.319" y="23.23"/><use xlink:href="#H" y="23.23"/><use xlink:href="#H" x="2.809" y="23.23"/><use xlink:href="#C" x="28.936" y="23.23"/><use xlink:href="#C" x="31.745" y="23.23"/><use xlink:href="#F" x="23.319" y="23.23"/><use xlink:href="#J" x="23.319" class="F"/></g><rect x="59.988" y="32.08" width="19.662" height="19.07" rx="1.054" class="B C D"/><g class="E"><path d="M61.745 41.555a.7.7 0 0 1 .702-.702h14.745a.702.702 0 1 1 0 1.404H62.447a.7.7 0 0 1-.702-.702zm3.159 2.808a.7.7 0 0 1 .702-.702h8.426a.702.702 0 1 1 0 1.404h-8.425a.7.7 0 0 1-.702-.702z"/><use xlink:href="#I" y="23.23"/><use xlink:href="#C" x="49.447" y="23.23"/><use xlink:href="#C" x="52.255" y="23.23"/><use xlink:href="#C" x="55.064" y="23.23"/><use xlink:href="#C" x="57.872" y="23.23"/><use xlink:href="#J" x="46.638" class="F"/></g><path d="M83.5 34l4-4-4-4m-73 0l-4 4 4 4" stroke-width="1.8" stroke-linecap="round" stroke-linejoin="round" class="C"/><defs ><path id="B" d="M18.266 21.133a.7.7 0 0 1 .702-.702h8.426a.7.7 0 1 1 0 1.404h-8.426a.7.7 0 0 1-.702-.702z"/><path id="C" d="M17.564 23.24l.421.843.843.105-.579.649.157.931-.843-.421-.843.421.159-.931-.58-.649.843-.105.421-.843z"/><path id="D" d="M20.372 23.24l.421.843.842.105-.578.649.157.931-.843-.421-.842.421.159-.931-.58-.649.843-.105.421-.843z"/><path id="E" d="M23.181 23.24l.421.843.843.105-.579.649.157.931-.843-.421-.843.421.159-.931-.58-.649.842-.105.421-.843z"/><path id="F" d="M28.798 23.24l.421.843.843.105-.579.649.157.931-.843-.421-.842.421.159-.931-.58-.649.843-.105.421-.843z"/><path id="G" d="M23.08 10.995a2.5 2.5 0 1 0 0 5 2.5 2.5 0 1 0 0-5zm-1.667 4.211a2.38 2.38 0 0 0 3.333 0v-.021a.84.84 0 0 0-.244-.594.83.83 0 0 0-.589-.246h-1.667a.83.83 0 0 0-.589.246.84.84 0 0 0-.244.594v.021zm2.5-2.095c0 .464-.373.839-.833.839s-.833-.376-.833-.839.373-.839.833-.839.833.376.833.839z"/><path id="H" d="M40.883 23.24l.421.843.843.105-.578.649.157.931-.843-.421-.843.421.159-.931-.58-.649.843-.105.421-.843z"/><path id="I" d="M64.202 23.24l.421.843.842.105-.578.649.157.931-.843-.421-.843.421.159-.931-.58-.649.843-.105.421-.843z"/><path id="J" d="M23.08 34.225a2.5 2.5 0 1 0 0 5 2.5 2.5 0 1 0 0-5zm-1.667 4.211a2.38 2.38 0 0 0 3.333 0v-.02a.84.84 0 0 0-.244-.594.83.83 0 0 0-.589-.246h-1.667a.83.83 0 0 0-.589.246.84.84 0 0 0-.244.594v.02zm2.5-2.095c0 .464-.373.84-.833.84s-.833-.376-.833-.84.373-.84.833-.84.833.376.833.84z"/></defs></svg>