<svg xmlns="http://www.w3.org/2000/svg" width="250" height="250"><path d="M0 0 C4.805753 1.36100427 7.24671291 2.72364691 10 7.12890625 C11.20029908 9.52950442 11.11459743 11.02251274 11.09765625 13.69921875 C11.09443359 14.59511719 11.09121094 15.49101563 11.08789062 16.4140625 C11.07951172 17.35121094 11.07113281 18.28835937 11.0625 19.25390625 C11.05798828 20.19878906 11.05347656 21.14367187 11.04882812 22.1171875 C11.03702357 24.45449012 11.02055759 26.79166686 11 29.12890625 C12.17175781 29.31839844 12.17175781 29.31839844 13.3671875 29.51171875 C16 30.12890625 16 30.12890625 18.125 32.00390625 C19.9812192 35.09760491 20.36777486 36.90653127 21 40.37890625 C22.60025418 46.96558783 26.49702273 49.32783524 31.91796875 53.01171875 C39.26492779 58.0586792 45.7250749 64.34111057 47.421875 73.375 C47.73167865 76.29535495 47.87539561 79.19414505 48 82.12890625 C48.08972899 83.84642877 48.18100856 85.56387066 48.2734375 87.28125 C48.53505631 92.2296581 48.77213187 97.17883473 49 102.12890625 C55.435 101.63390625 55.435 101.63390625 62 101.12890625 C61.030625 100.40703125 60.06125 99.68515625 59.0625 98.94140625 C56.92858638 97.14628934 56.05093401 96.24875097 54.9375 93.62890625 C55.0206073 90.30461418 55.99412908 88.75728883 58 86.12890625 C62.04474399 82.58975526 65.5649765 81.83711826 70.9375 81.90625 C74.84552151 82.32813869 77.74134301 84.17406302 80.8125 86.50390625 C82.46558625 88.76602428 82.86659544 90.32741057 83 93.12890625 C81.18774463 97.13494443 79.64156948 98.39772914 76 101.12890625 C80.29 101.45890625 84.58 101.78890625 89 102.12890625 C89.17095093 99.52495721 89.33737414 96.92087997 89.5 94.31640625 C89.54987061 93.539021 89.59974121 92.76163574 89.65112305 91.96069336 C89.90916676 87.6761018 89.99188241 83.484213 89.8125 79.19140625 C89.77178863 70.22133532 93.67111275 63.63267509 99.70703125 57.234375 C102.85182291 54.34673836 106.22513229 51.96060991 109.80078125 49.63671875 C114.06117068 46.71574127 115.29875884 44.85556888 116.375 39.75390625 C117.64535373 34.69923564 118.83716301 32.25103399 123 29.12890625 C123.99 28.79890625 124.98 28.46890625 126 28.12890625 C126.00410889 27.55446777 126.00821777 26.9800293 126.01245117 26.38818359 C126.04555997 23.75907978 126.11621693 21.13224096 126.1875 18.50390625 C126.19620117 17.14845703 126.19620117 17.14845703 126.20507812 15.765625 C126.34946028 11.36999056 126.52808697 8.09955397 129.328125 4.578125 C132.52129164 1.65105558 134.70954592 0.67496404 139 0.12890625 C141.375 1.25390625 141.375 1.25390625 143 3.12890625 C144.3302015 6.93830153 144.32378428 10.97835221 144.53515625 14.97265625 C144.57813339 15.73759399 144.62111053 16.50253174 144.66539001 17.29064941 C144.75545797 18.91111039 144.8435927 20.53167981 144.92993164 22.15234375 C145.06056604 24.59277709 145.1987397 27.03269547 145.33789062 29.47265625 C146.7507666 54.82893643 146.7507666 54.82893643 144.25 61.00390625 C143.92515625 61.84695312 143.6003125 62.69 143.265625 63.55859375 C140.54645454 69.08085969 136.88706607 73.55464414 132.6875 78.00390625 C131.71207734 79.06104824 130.73681695 80.11833998 129.76171875 81.17578125 C128.14054052 82.920557 126.50302192 84.63394343 124.83203125 86.33203125 C120.25270998 91.13592478 118.39278905 95.65575335 117 102.12890625 C118.91425781 102.07669922 118.91425781 102.07669922 120.8671875 102.0234375 C122.53644521 101.99530394 124.2057171 101.96800332 125.875 101.94140625 C126.71675781 101.91626953 127.55851563 101.89113281 128.42578125 101.86523438 C129.23144531 101.85556641 130.03710938 101.84589844 130.8671875 101.8359375 C131.61081543 101.82022705 132.35444336 101.8045166 133.12060547 101.78833008 C133.74080566 101.90072021 134.36100586 102.01311035 135 102.12890625 C135.99 103.61390625 135.99 103.61390625 137 105.12890625 C136.67 105.78890625 136.34 106.44890625 136 107.12890625 C92.11 107.12890625 48.22 107.12890625 3 107.12890625 C2.67 105.80890625 2.34 104.48890625 2 103.12890625 C4.11925604 101.00965021 8.6196093 101.71059608 11.5625 101.56640625 C12.36880859 101.52322266 13.17511719 101.48003906 14.00585938 101.43554688 C16.00368805 101.32915363 18.0018207 101.22849737 20 101.12890625 C18.94088637 92.98496434 16.05288435 89.20809937 10.25 83.56640625 C-0.30210669 73.02396266 -8.34639156 64.16118536 -8.375 48.56640625 C-8.31558978 44.75061576 -8.16129601 40.94161023 -8 37.12890625 C-7.94976691 35.76970978 -7.89998945 34.41049641 -7.85058594 33.05126953 C-7.7110657 29.32575623 -7.5438618 25.60223174 -7.35919189 21.87869263 C-7.28664269 20.38389108 -7.21950688 18.88881658 -7.15789795 17.39352417 C-7.0670347 15.27258464 -6.9509201 13.15445763 -6.828125 11.03515625 C-6.7652832 9.80087891 -6.70244141 8.56660156 -6.63769531 7.29492188 C-5.86042771 3.43596085 -4.2741601 0.27548298 0 0 Z M-1 5.12890625 C-2.6022634 26.54586508 -2.6022634 26.54586508 -3.375 48.00390625 C-3.41367187 49.2108313 -3.41367187 49.2108313 -3.453125 50.44213867 C-3.48703468 60.44231462 1.33394093 67.14372733 8 74.12890625 C9.54742594 75.77422416 11.09009719 77.42376703 12.62890625 79.07714844 C13.68874499 80.21424048 14.75366187 81.34662597 15.82421875 82.47363281 C21.65139421 88.69054793 23.5479125 93.75147834 25 102.12890625 C31.27 102.12890625 37.54 102.12890625 44 102.12890625 C43.67301494 96.19116627 43.67301494 96.19116627 43.34179688 90.25366211 C43.14362442 86.57370978 43.0018897 82.94144755 43.0390625 79.25390625 C42.94554845 71.7727819 39.10275485 65.42634452 34 60.12890625 C29.80115587 56.73940454 25.42064431 53.57872678 20.7890625 50.8046875 C17.53953349 47.7609147 17.1830507 43.35457154 16.125 39.16015625 C14.89931016 35.85760307 14.07773528 34.7610386 11 33.12890625 C10.01 33.12890625 9.02 33.12890625 8 33.12890625 C8.31502753 45.50089647 10.59217397 53.7411753 17.78515625 63.87109375 C19.67740427 66.65440036 20.36931192 67.99548094 21 71.12890625 C17.46101037 70.52120569 17.02777601 70.16181622 14.52734375 67.19921875 C7.4400143 56.80204311 2.72608375 44.97280456 4.38671875 32.140625 C5 30.12890625 5 30.12890625 6 29.12890625 C6.33326675 26.05610246 6.32496457 22.96745695 6.375 19.87890625 C6.41238281 19.01910156 6.44976562 18.15929687 6.48828125 17.2734375 C6.55182294 12.69137536 6.48698571 10.76024278 3.6015625 7.01953125 C1.26634959 4.93294533 1.26634959 4.93294533 -1 5.12890625 Z M137 5.12890625 C133.83685974 6.37265386 133.83685974 6.37265386 132 9.12890625 C131.90459654 10.63826097 131.86926513 12.15169708 131.8671875 13.6640625 C131.86589844 14.55544922 131.86460937 15.44683594 131.86328125 16.36523438 C131.86908203 17.76418945 131.86908203 17.76418945 131.875 19.19140625 C131.87113281 20.12791016 131.86726563 21.06441406 131.86328125 22.02929688 C131.86457031 22.91939453 131.86585938 23.80949219 131.8671875 24.7265625 C131.86887939 25.95644897 131.86887939 25.95644897 131.87060547 27.21118164 C131.78934756 29.13755392 131.78934756 29.13755392 133 30.12890625 C133.1553022 33.18318284 133.13857841 36.0801812 133 39.12890625 C132.96777344 40.16789062 132.93554688 41.206875 132.90234375 42.27734375 C132.27215432 50.0348869 130.20725006 55.38196259 126.125 61.94140625 C125.69010254 62.64144775 125.25520508 63.34148926 124.80712891 64.06274414 C121.57182579 68.94487855 121.57182579 68.94487855 118.84326172 69.82299805 C117.93084717 69.97442261 117.93084717 69.97442261 117 70.12890625 C118.46332995 65.99042623 120.55230401 62.69745527 123 59.06640625 C128.23763215 50.92286857 129.43366744 42.66959001 129 33.12890625 C126.58414426 33.15983798 126.58414426 33.15983798 124 34.12890625 C122.22901521 36.75258743 121.07486018 38.97517878 120.8671875 42.17578125 C120.6433521 44.92019795 120.26669877 46.65525865 119 49.12890625 C116.2241137 51.46630399 113.41250571 53.46334189 110.39404297 55.46118164 C103.31240216 60.14850126 97.23998696 65.6208778 95 74.12890625 C94.5017153 78.93755613 94.39786228 83.73490127 94.3125 88.56640625 C94.27833984 89.87029297 94.24417969 91.17417969 94.20898438 92.51757812 C94.12684385 95.72105851 94.06173702 98.92496771 94 102.12890625 C99.94 102.12890625 105.88 102.12890625 112 102.12890625 C112.6496875 99.28265625 112.6496875 99.28265625 113.3125 96.37890625 C115.88105971 87.95769976 120.81021801 83.08163276 127 77.12890625 C134.33687949 70.0516184 140.7087079 63.08764614 141.10229492 52.33398438 C141.11180997 42.444188 140.60707558 32.62194021 140 22.75390625 C139.90326786 21.13153291 139.80691154 19.50913711 139.7109375 17.88671875 C139.47827458 13.96717648 139.24058253 10.04797005 139 6.12890625 C138.34 5.79890625 137.68 5.46890625 137 5.12890625 Z M60 90.12890625 C60.27034634 92.56607883 60.27034634 92.56607883 61 95.12890625 C64.20624887 97.2664055 65.22458103 97.42465624 68.9375 97.44140625 C70.21947266 97.46654297 70.21947266 97.46654297 71.52734375 97.4921875 C74.4421356 97.06394794 75.81326679 96.05181086 78 94.12890625 C77.72965366 91.69173367 77.72965366 91.69173367 77 89.12890625 C73.79375113 86.991407 72.77541897 86.83315626 69.0625 86.81640625 C67.78052734 86.79126953 67.78052734 86.79126953 66.47265625 86.765625 C63.5578644 87.19386456 62.18673321 88.20600164 60 90.12890625 Z " fill="#FFFFFF" transform="translate(56,47.87109375)"></path><path d="M0 0 C2.67053989 0.363378 3.77260595 0.74591911 5.59765625 2.78515625 C8.78269539 7.73683043 11.16709367 12.39945289 13 18 C12.49440092 16.56445975 11.9957251 15.1264798 11.5 13.6875 C11.2215625 12.88699219 10.943125 12.08648437 10.65625 11.26171875 C10 9 10 9 10 6 C10.99 6 11.98 6 13 6 C15.475 11.94 15.475 11.94 18 18 C19.134375 17.525625 20.26875 17.05125 21.4375 16.5625 C25.91298952 14.8651766 30.24712186 14.31905895 35 14 C35.0272415 15.41655793 35.04650467 16.83327045 35.0625 18.25 C35.07410156 19.03890625 35.08570313 19.8278125 35.09765625 20.640625 C35.00385306 22.90691002 34.63241063 24.8288895 34 27 C34.99 27 35.98 27 37 27 C36.125 32.875 36.125 32.875 35 34 C38.63 35.98 42.26 37.96 46 40 C46 44 46 44 44.71484375 45.78125 C36.2128946 54.00291511 29.35917466 56.35436615 17.55859375 56.29296875 C12.71286155 55.89403361 9.16746054 54.38887905 5 52 C3.66945989 51.3277759 2.33687928 50.65952711 1 50 C-0.299375 50.928125 -0.299375 50.928125 -1.625 51.875 C-9.09513455 56.57841805 -16.37380813 56.76085485 -25 56 C-32.9998751 54.09475234 -39.43585085 49.84622373 -44 43 C-44 42.01 -44 41.02 -44 40 C-42.37750059 39.16180842 -40.75191503 38.3295884 -39.125 37.5 C-38.22007813 37.0359375 -37.31515625 36.571875 -36.3828125 36.09375 C-34 35 -34 35 -32 35 C-32.99 32.03 -33.98 29.06 -35 26 C-33.68 26 -32.36 26 -31 26 C-31.165 25.319375 -31.33 24.63875 -31.5 23.9375 C-32.07089059 20.5835178 -32.06659023 17.39610195 -32 14 C-19.33029613 15.74259681 -19.33029613 15.74259681 -14 19 C-13.896875 17.783125 -13.79375 16.56625 -13.6875 15.3125 C-13.21917793 11.59890387 -12.41028567 8.96650544 -10 6 C-9.01 6 -8.02 6 -7 6 C-7.2165625 6.61488281 -7.433125 7.22976562 -7.65625 7.86328125 C-7.9346875 8.67152344 -8.213125 9.47976562 -8.5 10.3125 C-8.7784375 11.11300781 -9.056875 11.91351563 -9.34375 12.73828125 C-10.13933107 15.08769422 -10.13933107 15.08769422 -10 18 C-9.86464844 17.45472656 -9.72929688 16.90945312 -9.58984375 16.34765625 C-7.70436456 9.74283395 -4.4588801 5.16741447 0 0 Z M1 3 C0.03138536 4.20010745 -0.9243885 5.41058244 -1.875 6.625 C-2.40867187 7.29789063 -2.94234375 7.97078125 -3.4921875 8.6640625 C-8.05558042 15.73377485 -7.94712413 23.8806367 -7 32 C-5.05518641 37.61357867 -3.02807638 42.64794908 2 46 C2.96724632 44.6312552 3.9233644 43.25464396 4.875 41.875 C5.40867187 41.10929687 5.94234375 40.34359375 6.4921875 39.5546875 C10.89859856 32.08890296 11.36100193 23.44400772 9.27734375 15.109375 C7.38468744 9.99077414 5.18997797 6.49164831 1 3 Z M-29 18 C-27.827968 27.49750069 -24.59858831 35.49445463 -16.9375 41.5625 C-14.0316919 43.54246521 -11.58291663 44.77606771 -8 45 C-8 45.66 -8 46.32 -8 47 C-13.68283616 46.17340565 -16.40500737 44.89324917 -20.5 40.8125 C-23.39468984 37.97005295 -23.39468984 37.97005295 -27.06640625 36.55859375 C-32.14058804 37.04515913 -36.63097922 39.50175674 -41 42 C-36.61361557 48.28715102 -31.1158936 51.68032225 -23.66796875 53.6015625 C-15.13217966 54.88716296 -8.14331879 52.55956518 -1 48 C-2.36981363 45.17793026 -3.89187217 42.50415298 -5.5 39.8125 C-7.35735228 36.56747073 -8.27545274 34.00897338 -8.75 30.3125 C-9.28129711 27.36199567 -9.72959826 26.25462377 -11.94140625 24.171875 C-17.31169373 20.52680343 -22.36593206 17.6209104 -29 18 Z M14.30078125 24.15625 C11.86012279 27.61568182 11.09964427 31.77226118 10.01171875 35.81640625 C8.68423807 39.9936138 6.7935541 42.66325483 4 46 C5.00442585 49.23648331 5.99583109 49.99765499 9 51.6875 C16.4519611 54.50131104 24.53048141 54.87589479 32 52 C36.82173974 49.42286324 40.85108407 47.19790136 43 42 C36.03343343 37.43258689 36.03343343 37.43258689 28 37 C25.53239602 38.83988016 23.43313755 40.87912989 21.25390625 43.05078125 C17.9675326 45.89289642 15.241104 46.38311215 11 47 C11 46.34 11 45.68 11 45 C11.66 44.95875 12.32 44.9175 13 44.875 C19.29608573 43.03864166 24.38608911 38.42240566 27.96875 33 C30.36791969 28.34706484 32 23.24350787 32 18 C25.70767526 17.41009456 19.02018672 19.98383762 14.30078125 24.15625 Z M-31 26 C-30.65772428 28.97065509 -30.65772428 28.97065509 -30 32 C-29.34 32.33 -28.68 32.66 -28 33 C-28.66 30.69 -29.32 28.38 -30 26 C-30.33 26 -30.66 26 -31 26 Z M33 27 C34 29 34 29 34 29 Z M32 29 C33 32 33 32 33 32 Z " fill="#FFFFFF" transform="translate(124,21)"></path><path d="M0 0 C8.76024137 6.69107011 16.53709122 14.91691048 19 26 C19.07522969 28.33212027 19.09325876 30.6685311 19 33 C17.68 33 16.36 33 15 33 C14.78085938 32.23816406 14.56171875 31.47632813 14.3359375 30.69140625 C10.1185403 16.95914951 3.02712274 7.50173116 -9.8125 0.6875 C-24.72857966 -6.16381569 -43.45863029 -7.96111474 -59.34375 -3.03125 C-72.79360069 2.19045674 -83.81181985 9.54121875 -90 23 C-91.18588843 26.29613857 -92.17445655 29.59644366 -93 33 C-94.65 33 -96.3 33 -98 33 C-96.09591278 19.64297024 -90.17357167 9.29867442 -79.39453125 0.9921875 C-55.40419643 -15.00136905 -24.28790128 -16.14049856 0 0 Z " fill="#FFFFFF" transform="translate(164,18)"></path><path d="M0 0 C2.31 0 4.62 0 7 0 C9.21484375 2.625 9.21484375 2.625 10.9375 6 C11.52402344 7.11375 12.11054688 8.2275 12.71484375 9.375 C13.13894531 10.24125 13.56304687 11.1075 14 12 C14 8.04 14 4.08 14 0 C16.31 0 18.62 0 21 0 C21 8.58 21 17.16 21 26 C18.69 26 16.38 26 14 26 C11.78515625 23.375 11.78515625 23.375 10.0625 20 C9.47597656 18.88625 8.88945312 17.7725 8.28515625 16.625 C7.64900391 15.325625 7.64900391 15.325625 7 14 C6.67 17.96 6.34 21.92 6 26 C4.02 26 2.04 26 0 26 C0 17.42 0 8.84 0 0 Z M5 10 C6 12 6 12 6 12 Z " fill="#FFFFFF" transform="translate(169,167)"></path><path d="M0 0 C2.31 0 4.62 0 7 0 C7 3.3 7 6.6 7 10 C9.64 10 12.28 10 15 10 C15 6.7 15 3.4 15 0 C17.31 0 19.62 0 22 0 C22 8.58 22 17.16 22 26 C19.69 26 17.38 26 15 26 C15 22.7 15 19.4 15 16 C12.36 16 9.72 16 7 16 C7 19.3 7 22.6 7 26 C4.69 26 2.38 26 0 26 C0 17.42 0 8.84 0 0 Z " fill="#FFFFFF" transform="translate(26,167)"></path><path d="M0 0 C0.680625 -0.00257813 1.36125 -0.00515625 2.0625 -0.0078125 C4 0.125 4 0.125 7 1.125 C6.67 3.105 6.34 5.085 6 7.125 C5.30132812 7.11339844 4.60265625 7.10179687 3.8828125 7.08984375 C2.97273438 7.08082031 2.06265625 7.07179687 1.125 7.0625 C0.22007812 7.05089844 -0.68484375 7.03929687 -1.6171875 7.02734375 C-4.0168585 6.96250743 -4.0168585 6.96250743 -6 8.125 C-7.37630292 13.96180873 -7.37630292 13.96180873 -5 19.125 C-1.93443402 19.85843428 -1.93443402 19.85843428 1 20.125 C1 18.805 1 17.485 1 16.125 C0.01 16.125 -0.98 16.125 -2 16.125 C-2 14.475 -2 12.825 -2 11.125 C1.3 11.125 4.6 11.125 8 11.125 C8 15.745 8 20.365 8 25.125 C2.24132327 26.56466918 -2.75009811 26.958297 -8.375 24.875 C-12.65013437 22.02491042 -13.72965154 20.32225748 -14.875 15.25 C-15.24474023 11.10582826 -14.37532604 8.60881153 -12 5.125 C-8.17773935 1.5894089 -5.21074664 -0.01973768 0 0 Z " fill="#FFFFFF" transform="translate(216,166.875)"></path><path d="M0 0 C2.05078125 0.03255208 4.1015625 0.06510417 6.15234375 0.09765625 C7.32581477 3.86640644 8.48994708 7.63797709 9.65234375 11.41015625 C9.98621094 12.48201172 10.32007812 13.55386719 10.6640625 14.65820312 C10.97988281 15.68623047 11.29570313 16.71425781 11.62109375 17.7734375 C12.06098633 19.19523315 12.06098633 19.19523315 12.50976562 20.64575195 C13.15234375 23.09765625 13.15234375 23.09765625 13.15234375 26.09765625 C10.84234375 26.09765625 8.53234375 26.09765625 6.15234375 26.09765625 C5.49234375 24.11765625 4.83234375 22.13765625 4.15234375 20.09765625 C2.17234375 19.76765625 0.19234375 19.43765625 -1.84765625 19.09765625 C-2.17765625 21.40765625 -2.50765625 23.71765625 -2.84765625 26.09765625 C-5.15765625 26.09765625 -7.46765625 26.09765625 -9.84765625 26.09765625 C-8.67746951 20.14034195 -7.08696616 14.38923416 -5.28515625 8.59765625 C-4.95221558 7.51967773 -4.95221558 7.51967773 -4.61254883 6.41992188 C-2.63137872 0.13907921 -2.63137872 0.13907921 0 0 Z M1.15234375 7.09765625 C0.82234375 9.40765625 0.49234375 11.71765625 0.15234375 14.09765625 C1.14234375 14.09765625 2.13234375 14.09765625 3.15234375 14.09765625 C2.82234375 11.78765625 2.49234375 9.47765625 2.15234375 7.09765625 C1.82234375 7.09765625 1.49234375 7.09765625 1.15234375 7.09765625 Z " fill="#FFFFFF" transform="translate(96.84765625,166.90234375)"></path><path d="M0 0 C5.28 0 10.56 0 16 0 C16 1.98 16 3.96 16 6 C13.03 6 10.06 6 7 6 C7 7.32 7 8.64 7 10 C9.97 10 12.94 10 16 10 C16 11.65 16 13.3 16 15 C13.03 15 10.06 15 7 15 C7 16.65 7 18.3 7 20 C10.3 20 13.6 20 17 20 C17 21.98 17 23.96 17 26 C11.39 26 5.78 26 0 26 C0 17.42 0 8.84 0 0 Z " fill="#FFFFFF" transform="translate(60,167)"></path><path d="M0 0 C4.39977566 2.12132041 7.46543319 4.80821643 10 9 C10.66102689 12.56954521 10.75096284 14.80088192 8.7890625 17.93359375 C5.41797474 22.04905876 2.63294229 24.68463365 -2.8046875 25.3359375 C-10.79032846 25.43753599 -14.57237066 24.33742857 -20.375 18.6875 C-22.56582277 15.06421618 -22.71987819 13.17529351 -22 9 C-16.50211025 0.22111153 -9.96864232 -1.0823861 0 0 Z M-16.875 8.875 C-18.20502943 10.96774803 -18.20502943 10.96774803 -17.9375 13.5 C-16.8084214 16.51087626 -15.47052444 17.96545046 -13 20 C-8.17549824 21.60816725 -3.8106662 21.80474053 0.8125 19.75 C3.08501178 17.93199057 4.63501091 16.57831272 6 14 C5.91696878 10.67875138 5.25657298 9.30788758 3.125 6.75 C-0.35841895 3.88130204 -3.57481928 3.71623588 -8.00390625 3.78125 C-11.90832539 4.20913155 -14.18350996 6.18350996 -16.875 8.875 Z " fill="#FFFFFF" transform="translate(131,79)"></path><path d="M0 0 C2.64207034 2.64207034 2.95636343 3.53745233 3.3125 7.3125 C2.9475203 11.61926041 2.06016472 13.02483986 -1 16 C-5.88784041 19.06835797 -11.43530404 18.61747295 -17 18 C-20.77422247 16.53784893 -22.74898089 14.37652866 -25 11 C-25.4336084 7.09752441 -25.39347483 4.75273445 -23.5625 1.25 C-16.346537 -5.08596752 -7.87980203 -5.25320135 0 0 Z M-20 4 C-21.24401278 6.38608611 -21.24401278 6.38608611 -21 9 C-19.15554062 11.28967371 -17.62637553 12.68681224 -15 14 C-10.80507034 14.27507735 -7.98666552 14.3778719 -4.0625 12.875 C-1.75692558 11.08619503 -1.75692558 11.08619503 -1 8 C-0.71613352 5.04464983 -0.71613352 5.04464983 -2.25 3.1875 C-7.65654464 -0.48122672 -15.12316409 -0.28570429 -20 4 Z " fill="#FFFFFF" transform="translate(136,110)"></path><path d="M0 0 C1.32 0.33 2.64 0.66 4 1 C4.99 4.63 5.98 8.26 7 12 C7.99 8.7 8.98 5.4 10 2 C11.65 1.67 13.3 1.34 15 1 C15.99 4.63 16.98 8.26 18 12 C18.99 8.37 19.98 4.74 21 1 C22.32 0.67 23.64 0.34 25 0 C23.68882339 7.11120489 21.98279484 14.04699943 20 21 C18.35 20.67 16.7 20.34 15 20 C14.34 17.03 13.68 14.06 13 11 C11.33094759 14.33810482 10.1258614 17.46157845 9 21 C7.68 21 6.36 21 5 21 C4.16193384 18.06377536 3.32937556 15.12617933 2.5 12.1875 C2.26152344 11.35412109 2.02304688 10.52074219 1.77734375 9.66210938 C1.43896484 8.45844727 1.43896484 8.45844727 1.09375 7.23046875 C0.88427734 6.49207764 0.67480469 5.75368652 0.45898438 4.99291992 C0 3 0 3 0 0 Z " fill="#FFFFFF" transform="translate(134,200)"></path><path d="M0 0 C2.31 0 4.62 0 7 0 C7 6.6 7 13.2 7 20 C10.3 20 13.6 20 17 20 C17 21.98 17 23.96 17 26 C11.39 26 5.78 26 0 26 C0 17.42 0 8.84 0 0 Z " fill="#FFFFFF" transform="translate(121,167)"></path><path d="M0 0 C1.32 0 2.64 0 4 0 C4 2.64 4 5.28 4 8 C6.64 8 9.28 8 12 8 C12 5.36 12 2.72 12 0 C13.32 0 14.64 0 16 0 C16 6.6 16 13.2 16 20 C14.68 20 13.36 20 12 20 C12 17.03 12 14.06 12 11 C9.36 11 6.72 11 4 11 C4 13.97 4 16.94 4 20 C2.68 20 1.36 20 0 20 C0 13.4 0 6.8 0 0 Z " fill="#FFFFFF" transform="translate(112,201)"></path><path d="M0 0 C2.31 0 4.62 0 7 0 C7 8.58 7 17.16 7 26 C4.69 26 2.38 26 0 26 C0 17.42 0 8.84 0 0 Z " fill="#FFFFFF" transform="translate(149,167)"></path><path d="M0 0 C1.65 0 3.3 0 5 0 C6.03411477 2.74564964 7.05251157 5.4954861 8.0625 8.25 C8.35705078 9.02730469 8.65160156 9.80460938 8.95507812 10.60546875 C9.22900391 11.35957031 9.50292969 12.11367187 9.78515625 12.890625 C10.04176025 13.58188477 10.29836426 14.27314453 10.56274414 14.98535156 C11.06952056 17.32031471 10.74214139 18.75375603 10 21 C9.01 20.67 8.02 20.34 7 20 C6.67 18.02 6.34 16.04 6 14 C3.69 14 1.38 14 -1 14 C-1.33 15.98 -1.66 17.96 -2 20 C-3.32 20.33 -4.64 20.66 -6 21 C-4.55613874 13.78069368 -2.42211826 6.94889267 0 0 Z M2 5 C1.67 6.98 1.34 8.96 1 11 C2.32 10.67 3.64 10.34 5 10 C4.34 8.35 3.68 6.7 3 5 C2.67 5 2.34 5 2 5 Z " fill="#FFFFFF" transform="translate(168,201)"></path><path d="M0 0 C1.65 0 3.3 0 5 0 C7.31 6.93 9.62 13.86 12 21 C10.35 20.67 8.7 20.34 7 20 C6.67 18.02 6.34 16.04 6 14 C3.69 14 1.38 14 -1 14 C-1.33 15.98 -1.66 17.96 -2 20 C-3.32 20.33 -4.64 20.66 -6 21 C-4.55613874 13.78069368 -2.42211826 6.94889267 0 0 Z M2 5 C1.34 6.98 0.68 8.96 0 11 C1.32 11 2.64 11 4 11 C3.67 9.02 3.34 7.04 3 5 C2.67 5 2.34 5 2 5 Z " fill="#FFFFFF" transform="translate(78,201)"></path><path d="M0 0 C2 1.125 2 1.125 3 3 C3 6.5 3 6.5 2 10 C-0.87924492 12.34885769 -2.27472933 13 -6 13 C-6.33 15.31 -6.66 17.62 -7 20 C-7.99 20 -8.98 20 -10 20 C-10 13.4 -10 6.8 -10 0 C-6.22941703 -1.25686099 -3.86146303 -0.82745636 0 0 Z M-7 3 C-7 4.98 -7 6.96 -7 9 C-5.35 9 -3.7 9 -2 9 C-1.61781233 7.34385343 -1.28604898 5.67542976 -1 4 C-2.06645115 2.70366379 -2.06645115 2.70366379 -4.5625 2.9375 C-5.366875 2.958125 -6.17125 2.97875 -7 3 Z " fill="#FFFFFF" transform="translate(66,201)"></path><path d="M0 0 C5.28 0 10.56 0 16 0 C16 0.99 16 1.98 16 3 C14.02 3 12.04 3 10 3 C10 8.61 10 14.22 10 20 C8.68 20 7.36 20 6 20 C6 14.39 6 8.78 6 3 C4.02 3 2.04 3 0 3 C0 2.01 0 1.02 0 0 Z " fill="#FFFFFF" transform="translate(91,201)"></path><path d="M0 0 C4.61816193 0.54376368 4.61816193 0.54376368 6.36328125 2.62890625 C7.2421875 4.41927083 8.12109375 6.20963542 9 8 C9.5775 6.865625 10.155 5.73125 10.75 4.5625 C12.68760984 1.13016257 12.68760984 1.13016257 15.25 0.0625 C15.8275 0.041875 16.405 0.02125 17 0 C15.97927551 3.48747535 14.84277257 6.25728125 12.9375 9.375 C10.63550686 13.20024511 10.31016744 16.58011403 10 21 C9.01 21 8.02 21 7 21 C6.95875 19.7625 6.9175 18.525 6.875 17.25 C6.20967603 10.83218264 3.08016709 5.56690749 0 0 Z " fill="#FFFFFF" transform="translate(181,200)"></path><path d="M0 0 C1.32 0 2.64 0 4 0 C4.33 0.66 4.66 1.32 5 2 C5.33 1.34 5.66 0.68 6 0 C7.32 0 8.64 0 10 0 C10 2.97 10 5.94 10 9 C6.7 9 3.4 9 0 9 C0 6.03 0 3.06 0 0 Z " fill="#FFFFFF" transform="translate(89,229)"></path><path d="M0 0 C0.763125 0.0825 1.52625 0.165 2.3125 0.25 C2.6425 3.22 2.9725 6.19 3.3125 9.25 C0.5 9.5625 0.5 9.5625 -2.6875 9.25 C-4.5625 6.75 -4.5625 6.75 -5.6875 4.25 C-3.34903846 0.31153846 -3.34903846 0.31153846 0 0 Z M-1.6875 3.25 C-0.6875 6.25 -0.6875 6.25 -0.6875 6.25 Z " fill="#FFFFFF" transform="translate(148.6875,228.75)"></path><path d="M0 0 C2.31 0 4.62 0 7 0 C6.67 0.99 6.34 1.98 6 3 C6.27571139 5.00875442 6.60235737 7.01178687 7 9 C4.69 9 2.38 9 0 9 C0 6.03 0 3.06 0 0 Z " fill="#FFFFFF" transform="translate(155,229)"></path><path d="M0 0 C1.32 0 2.64 0 4 0 C4.66 2.97 5.32 5.94 6 9 C5.01 9 4.02 9 3 9 C3 8.34 3 7.68 3 7 C2.34 7 1.68 7 1 7 C1 7.66 1 8.32 1 9 C0.01 9 -0.98 9 -2 9 C-1.34 6.03 -0.68 3.06 0 0 Z " fill="#FFFFFF" transform="translate(104,229)"></path><path d="M0 0 C1.32 0 2.64 0 4 0 C4.66 2.97 5.32 5.94 6 9 C5.01 9 4.02 9 3 9 C3 8.34 3 7.68 3 7 C2.34 7 1.68 7 1 7 C1 7.66 1 8.32 1 9 C0.01 9 -0.98 9 -2 9 C-1.125 2.25 -1.125 2.25 0 0 Z " fill="#FFFFFF" transform="translate(135,229)"></path><path d="M0 0 C1.65 0 3.3 0 5 0 C5.625 3.375 5.625 3.375 6 7 C4 9 4 9 1.375 9.125 C0.59125 9.08375 -0.1925 9.0425 -1 9 C-1 8.01 -1 7.02 -1 6 C-0.01 6 0.98 6 2 6 C1.01 5.34 0.02 4.68 -1 4 C-0.67 2.68 -0.34 1.36 0 0 Z " fill="#FFFFFF" transform="translate(124,229)"></path><path d="M0 0 C2.625 0.375 2.625 0.375 5 1 C5 4.11257569 4.82638376 6.10765685 4 9 C2.35 9 0.7 9 -1 9 C-1 7.68 -1 6.36 -1 5 C-1.33 4.01 -1.66 3.02 -2 2 C-1.34 1.34 -0.68 0.68 0 0 Z " fill="#FFFFFF" transform="translate(115,229)"></path><path d="M0 0 C1.4540625 0.0309375 1.4540625 0.0309375 2.9375 0.0625 C3.2675 1.7125 3.5975 3.3625 3.9375 5.0625 C1.6275 5.0625 -0.6825 5.0625 -3.0625 5.0625 C-3.625 3.125 -3.625 3.125 -4.0625 1.0625 C-3.0625 0.0625 -3.0625 0.0625 0 0 Z " fill="#FFFFFF" transform="translate(51.0625,149.9375)"></path><path d="M0 0 C2.31 0 4.62 0 7 0 C6.67 1.65 6.34 3.3 6 5 C3.69 4.67 1.38 4.34 -1 4 C-0.67 2.68 -0.34 1.36 0 0 Z " fill="#FFFFFF" transform="translate(196,150)"></path><path d="M0 0 C2.64 0 5.28 0 8 0 C8 0.99 8 1.98 8 3 C5.36 3 2.72 3 0 3 C0 2.01 0 1.02 0 0 Z " fill="#FFFFFF" transform="translate(201,211)"></path><path d="M0 0 C2.64 0 5.28 0 8 0 C8 0.99 8 1.98 8 3 C5.36 3 2.72 3 0 3 C0 2.01 0 1.02 0 0 Z " fill="#FFFFFF" transform="translate(41,211)"></path><path d="M0 0 C0.99 0.33 1.98 0.66 3 1 C2.67 2.32 2.34 3.64 2 5 C1.01 5 0.02 5 -1 5 C-0.67 3.35 -0.34 1.7 0 0 Z " fill="#FFFFFF" transform="translate(43,150)"></path><path d="M0 0 C1.32 0.33 2.64 0.66 4 1 C3.67 1.99 3.34 2.98 3 4 C2.01 4 1.02 4 0 4 C0 2.68 0 1.36 0 0 Z " fill="#FFFFFF" transform="translate(205,150)"></path><path d="M0 0 C0.99 0.495 0.99 0.495 2 1 C1.01 1.495 1.01 1.495 0 2 C0 1.34 0 0.68 0 0 Z " fill="#FFFFFF" transform="translate(75,69)"></path><path d="" fill="#FFFFFF" transform="translate(0,0)"></path><path d="M0 0 C2 1 2 1 2 1 Z " fill="#FFFFFF" transform="translate(138,59)"></path><path d="M0 0 C2 1 2 1 2 1 Z " fill="#FFFFFF" transform="translate(110,59)"></path><path d="" fill="#FFFFFF" transform="translate(0,0)"></path><path d="M0 0 C2 1 2 1 2 1 Z " fill="#FFFFFF" transform="translate(165,39)"></path><path d="" fill="#FFFFFF" transform="translate(0,0)"></path><path d="" fill="#FFFFFF" transform="translate(0,0)"></path><path d="" fill="#FFFFFF" transform="translate(0,0)"></path></svg>