<svg xmlns="http://www.w3.org/2000/svg" width="140" height="140"><path d="M0 0 C2.6875 0.375 2.6875 0.375 5 2.1875 C7.47035497 6.85372605 7.01383581 11.19895152 6.6875 16.375 C7.32171875 16.62765625 7.9559375 16.8803125 8.609375 17.140625 C11.54879228 18.88659466 11.62701853 21.17640193 12.64453125 24.28515625 C14.25867882 27.51949689 16.80940315 29.01227198 19.75 30.99609375 C22.8724066 33.21829038 24.98550044 35.97100089 26.6875 39.375 C26.83754973 40.7484635 26.93588006 42.1278526 27.00390625 43.5078125 C27.04580078 44.31347656 27.08769531 45.11914062 27.13085938 45.94921875 C27.17017578 46.79097656 27.20949219 47.63273437 27.25 48.5 C27.29318359 49.34949219 27.33636719 50.19898438 27.38085938 51.07421875 C27.48704236 53.17428223 27.58778497 55.27461948 27.6875 57.375 C30.6575 56.88 30.6575 56.88 33.6875 56.375 C33.171875 55.983125 32.65625 55.59125 32.125 55.1875 C30.6875 53.375 30.6875 53.375 30.8125 50.8125 C31.6875 48.375 31.6875 48.375 34.6875 46.375 C41.75292056 45.81425234 41.75292056 45.81425234 45.1875 47.875 C45.6825 48.37 46.1775 48.865 46.6875 49.375 C46.3125 52.3125 46.3125 52.3125 45.6875 55.375 C44.6975 55.87 44.6975 55.87 43.6875 56.375 C46.6575 56.87 46.6575 56.87 49.6875 57.375 C49.64109375 56.385 49.5946875 55.395 49.546875 54.375 C49.06274409 39.95155264 49.06274409 39.95155264 53.6875 34.375 C56.51537952 31.4768002 59.40731594 28.75598303 62.6875 26.375 C63.3475 26.375 64.0075 26.375 64.6875 26.375 C64.790625 25.281875 64.89375 24.18875 65 23.0625 C65.6875 19.375 65.6875 19.375 67.125 17.4375 C68.6875 16.375 68.6875 16.375 70.6875 16.375 C70.64109375 15.55515625 70.5946875 14.7353125 70.546875 13.890625 C70.51078125 12.81296875 70.4746875 11.7353125 70.4375 10.625 C70.39109375 9.55765625 70.3446875 8.4903125 70.296875 7.390625 C70.6875 4.375 70.6875 4.375 72.53515625 2.00390625 C75.1444333 0.02919022 76.48746512 -0.05743715 79.6875 0.375 C83.56716139 4.25466139 81.84862945 19.85765515 81.9375 25.4375 C81.9588501 26.13875 81.9802002 26.84 82.00219727 27.5625 C82.05143918 35.02578358 79.06791183 39.31564495 74.125 44.625 C73.33996094 45.47578125 72.55492188 46.3265625 71.74609375 47.203125 C70.41143278 48.61123031 69.05937472 50.00312528 67.6875 51.375 C66.97341666 53.35856483 66.30132258 55.35815437 65.6875 57.375 C69.3175 57.375 72.9475 57.375 76.6875 57.375 C76.6875 58.365 76.6875 59.355 76.6875 60.375 C51.6075 60.375 26.5275 60.375 0.6875 60.375 C0.6875 59.385 0.6875 58.395 0.6875 57.375 C5.6375 56.88 5.6375 56.88 10.6875 56.375 C9.08022437 51.3388697 7.01852358 48.48779091 3.1875 44.8125 C-2.64833425 39.20403591 -4.87762786 34.46854182 -5.3125 26.375 C-5.17760636 22.04739894 -4.81935762 17.74951554 -4.4375 13.4375 C-4.34597656 12.28958984 -4.25445313 11.14167969 -4.16015625 9.95898438 C-3.36879902 0.54629173 -3.36879902 0.54629173 0 0 Z M-0.3125 3.375 C-0.6595587 7.34138511 -0.95251653 11.30806522 -1.18798828 15.28271484 C-1.27094278 16.67667565 -1.3604547 18.07026182 -1.45654297 19.46337891 C-1.96134749 27.36828482 -2.30126259 33.99421411 2.8984375 40.5 C5.23640774 42.95027448 7.67644826 45.27913044 10.140625 47.6015625 C12.70436106 50.54079525 13.58210974 53.66869149 14.6875 57.375 C17.9875 57.375 21.2875 57.375 24.6875 57.375 C24.85547359 45.04473025 24.85547359 45.04473025 19.6875 34.375 C15.24696983 30.10952778 15.24696983 30.10952778 9.6875 28.375 C9.3575 25.735 9.0275 23.095 8.6875 20.375 C7.3675 20.045 6.0475 19.715 4.6875 19.375 C5.03217627 26.61320173 6.78964991 31.29090189 10.6875 37.375 C11.3475 37.375 12.0075 37.375 12.6875 37.375 C12.6875 38.365 12.6875 39.355 12.6875 40.375 C7.79548232 38.24712877 5.65440431 35.28486639 3.6875 30.375 C2.90590034 25.7080571 2.7484816 21.1010737 2.6875 16.375 C2.67203125 15.19679688 2.6565625 14.01859375 2.640625 12.8046875 C2.62733305 9.99344046 2.641168 7.18580795 2.6875 4.375 C1.6975 4.045 0.7075 3.715 -0.3125 3.375 Z M75.6875 3.375 C73.44491803 5.19287718 73.44491803 5.19287718 73.45703125 7.80078125 C73.47121094 8.75339844 73.48539063 9.70601562 73.5 10.6875 C73.50644531 11.63238281 73.51289062 12.57726563 73.51953125 13.55078125 C73.61398145 16.34885228 73.61398145 16.34885228 74.23828125 18.9296875 C75.49835588 25.78887634 72.64103397 32.21228406 69.00390625 37.87890625 C67.6875 39.375 67.6875 39.375 64.6875 40.375 C65.02523437 39.77171875 65.36296875 39.1684375 65.7109375 38.546875 C66.15695313 37.74765625 66.60296875 36.9484375 67.0625 36.125 C67.50335938 35.33609375 67.94421875 34.5471875 68.3984375 33.734375 C68.82382813 32.95578125 69.24921875 32.1771875 69.6875 31.375 C70.25984375 30.36953125 70.25984375 30.36953125 70.84375 29.34375 C71.80182629 27.10823865 71.89310528 25.54315846 71.8125 23.125 C71.77125 21.8875 71.73 20.65 71.6875 19.375 C70.6975 19.705 69.7075 20.035 68.6875 20.375 C68.31625 21.57125 67.945 22.7675 67.5625 24 C65.95322491 28.83647729 62.97670004 30.86075397 58.84375 33.63671875 C55.77360724 36.11174326 54.00876492 38.39677373 53.36376953 42.3684082 C53.17052502 44.64392508 53.06696726 46.90487299 53 49.1875 C52.96583984 49.97576172 52.93167969 50.76402344 52.89648438 51.57617188 C52.81450125 53.50863119 52.74931155 55.44179035 52.6875 57.375 C55.9875 57.375 59.2875 57.375 62.6875 57.375 C62.955625 56.3025 63.22375 55.23 63.5 54.125 C65.35995516 49.0101233 68.98804532 45.46380111 72.7512207 41.67675781 C76.39194478 37.96135538 78.43959268 35.08097147 78.91796875 29.859375 C78.77895644 21.01313701 78.2731303 12.2012852 77.6875 3.375 C77.0275 3.375 76.3675 3.375 75.6875 3.375 Z M34.6875 49.375 C34.6875 50.695 34.6875 52.015 34.6875 53.375 C35.81284105 54.73118499 35.81284105 54.73118499 38.75 54.4375 C39.719375 54.416875 40.68875 54.39625 41.6875 54.375 C42.3475 53.055 43.0075 51.735 43.6875 50.375 C42.70482141 49.16938816 42.70482141 49.16938816 40.83984375 49.27734375 C38.7890625 49.30989583 36.73828125 49.34244792 34.6875 49.375 Z " fill="#FFFFFF" transform="translate(31.3125,26.625)"></path><path d="M0 0 C0.78375 0.66 1.5675 1.32 2.375 2 C4.71512812 4.20201441 4.71512812 4.20201441 7 4 C7.99 5.98 8.98 7.96 10 10 C14.455 9.505 14.455 9.505 19 9 C19.00386719 10.13888672 19.00386719 10.13888672 19.0078125 11.30078125 C19.12492102 14.31047018 19.31171171 17.06503485 20 20 C22.87129568 22.3155324 22.87129568 22.3155324 26 23 C24.48455466 27.09170241 21.77217991 29.90780125 18 32 C12.72458635 33.47783235 8.40077768 33.37210557 3.3125 31.375 C-0.29893407 29.95825528 -0.63533693 29.85673951 -4.5 31.375 C-5.655 31.91125 -6.81 32.4475 -8 33 C-15.07259162 33.41018545 -19.58708854 30.9578566 -24.875 26.375 C-26 25 -26 25 -26 23 C-24.02 22.01 -22.04 21.02 -20 20 C-20 18.35 -20 16.7 -20 15 C-19.34 15 -18.68 15 -18 15 C-18.33 13.02 -18.66 11.04 -19 9 C-15.66666667 9 -12.33333333 9 -9 9 C-8.773125 8.21625 -8.54625 7.4325 -8.3125 6.625 C-7 4 -7 4 -4.5 2.8125 C-3.675 2.544375 -2.85 2.27625 -2 2 C-1.34 1.34 -0.68 0.68 0 0 Z M0 3 C-4.07883896 7.57324368 -4.6049543 11.29452061 -4.40625 17.36328125 C-3.82091028 21.16236115 -2.49165103 23.11902849 0 26 C4.25464239 20.92187844 5.54829318 17.68917685 5 11 C3.88005064 8.20257191 2.51424234 5.60260402 1 3 C0.67 3 0.34 3 0 3 Z M-7 10 C-6 12 -6 12 -6 12 Z M-16 11 C-15.63188906 17.13518234 -14.3376382 19.85952718 -10 24 C-7.32891902 24.95547581 -7.32891902 24.95547581 -5 25 C-5 25.99 -5 26.98 -5 28 C-11.75 24.25 -11.75 24.25 -14 22 C-19.03505052 22.23864442 -19.03505052 22.23864442 -23 25 C-17.01570135 29.88192784 -13.64750369 30.51623651 -6 30 C-3.02019799 29.14939987 -3.02019799 29.14939987 -1 28 C-1.61875 26.96875 -2.2375 25.9375 -2.875 24.875 C-4.28419995 22.44092736 -5.16086255 20.47719672 -6 17.75 C-7.16237458 14.55346991 -8.0385745 13.60763099 -11 12 C-13.64934822 11.28566879 -13.64934822 11.28566879 -16 11 Z M7 15 C5.89542471 17.23789417 5.22167331 19.36605896 4.60546875 21.78125 C3.98754916 24.04562631 3.11038452 25.93852663 2 28 C6.56890069 30.62580499 10.84385535 30.67906346 16 30 C18.65623594 28.91870041 20.62535342 27.65192806 23 26 C23 25.34 23 24.68 23 24 C20.78675527 22.60647554 19.38828938 21.98921418 16.75 22.0625 C12.77383154 23.41801198 9.47144 25.66560734 6 28 C6 27.01 6 26.02 6 25 C6.7425 24.938125 7.485 24.87625 8.25 24.8125 C11.90732095 23.7319279 12.92526089 22.14788003 15 19 C16.42143792 16.01498036 17 14.32269384 17 11 C12.91788759 11 10.00067282 12.31293669 7 15 Z M-18 16 C-17 18 -17 18 -17 18 Z " fill="#FFFFFF" transform="translate(70,11)"></path><path d="M0 0 C6.50568167 4.08697034 9.93616255 9.00322343 12.38671875 16.21875 C12.38671875 17.53875 12.38671875 18.85875 12.38671875 20.21875 C11.39671875 20.21875 10.40671875 20.21875 9.38671875 20.21875 C9.0928125 19.25775391 9.0928125 19.25775391 8.79296875 18.27734375 C6.04912017 10.34147135 2.34044324 5.85604092 -5.0859375 1.90234375 C-14.21188016 -1.95501346 -24.06095508 -2.23497208 -33.48828125 0.78125 C-41.00297649 3.95756448 -46.01228564 8.01721204 -49.11328125 15.65625 C-49.63641583 17.16928147 -50.14507246 18.68783049 -50.61328125 20.21875 C-51.60328125 20.21875 -52.59328125 20.21875 -53.61328125 20.21875 C-53.33320551 13.63697001 -50.92607839 9.17349388 -46.61328125 4.21875 C-43.79540734 1.82910834 -40.84237668 0.00125402 -37.61328125 -1.78125 C-36.948125 -2.19503906 -36.28296875 -2.60882813 -35.59765625 -3.03515625 C-23.76759504 -9.51459817 -10.9914059 -6.3572588 0 0 Z " fill="#FFFFFF" transform="translate(90.61328125,8.78125)"></path><path d="M0 0 C3 1.625 3 1.625 5 4 C5.5625 7 5.5625 7 5 10 C2.76793569 12.84780619 1.45007001 13.84997666 -2 15 C-1.195625 15.474375 -0.39125 15.94875 0.4375 16.4375 C3 18 3 18 4 19 C4.57416268 24.28229665 4.57416268 24.28229665 2.5 26.875 C-1.05708388 28.47568775 -4.16194265 28.56627076 -8 28 C-10.5 26.875 -10.5 26.875 -12 25 C-12.47350184 21.75313026 -12.64576592 19.89177198 -10.6875 17.1875 C-9 16 -9 16 -6 15 C-6.969375 14.54625 -7.93875 14.0925 -8.9375 13.625 C-12 12 -12 12 -13 10 C-13.375 7.125 -13.375 7.125 -13 4 C-9.33914351 -0.34726708 -5.37920232 -1.06282627 0 0 Z M-10 5 C-9.72965366 7.43717258 -9.72965366 7.43717258 -9 10 C-6.17282787 12.33296251 -6.17282787 12.33296251 -2.9375 11.75 C0.099459 11.2406756 0.099459 11.2406756 2 9 C1.83492354 6.42459787 1.83492354 6.42459787 1 4 C-3.06231189 1.96884405 -6.33315625 2.5554375 -10 5 Z M-9 20 C-9 21.32 -9 22.64 -9 24 C-6.26094655 25.36952673 -4.02912668 25.12621361 -1 25 C-0.34 24.67 0.32 24.34 1 24 C0.67 22.35 0.34 20.7 0 19 C-3.77897651 17.9502843 -5.64919071 17.89023119 -9 20 Z " fill="#FFFFFF" transform="translate(74,44)"></path><path d="M0 0 C2.475 0.495 2.475 0.495 5 1 C5.66 1.99 6.32 2.98 7 4 C7.66 2.68 8.32 1.36 9 0 C10.32 0.33 11.64 0.66 13 1 C13 5.29 13 9.58 13 14 C11.35 14.33 9.7 14.66 8 15 C7.01 13.35 6.02 11.7 5 10 C4.67 11.65 4.34 13.3 4 15 C2.68 15 1.36 15 0 15 C0 10.05 0 5.1 0 0 Z M8 6 C9 8 9 8 9 8 Z " fill="#FFFFFF" transform="translate(94,93)"></path><path d="M0 0 C1.65 0 3.3 0 5 0 C5 1.98 5 3.96 5 6 C6.32 6 7.64 6 9 6 C9 4.02 9 2.04 9 0 C10.32 0 11.64 0 13 0 C13 4.95 13 9.9 13 15 C11.68 15 10.36 15 9 15 C9 13.35 9 11.7 9 10 C7.68 10 6.36 10 5 10 C5 11.65 5 13.3 5 15 C3.35 15 1.7 15 0 15 C0 10.05 0 5.1 0 0 Z " fill="#FFFFFF" transform="translate(14,93)"></path><path d="M0 0 C-0.33 1.32 -0.66 2.64 -1 4 C-3.31 4 -5.62 4 -8 4 C-7.22520264 6.99152582 -7.22520264 6.99152582 -6 10 C-5.01 10.33 -4.02 10.66 -3 11 C-3 10.34 -3 9.68 -3 9 C-3.99 9 -4.98 9 -6 9 C-6 7.68 -6 6.36 -6 5 C-3.69 5 -1.38 5 1 5 C1 7.97 1 10.94 1 14 C-0.60332791 14.08121924 -2.20784026 14.13929134 -3.8125 14.1875 C-4.70582031 14.22230469 -5.59914063 14.25710937 -6.51953125 14.29296875 C-9 14 -9 14 -10.76953125 12.63671875 C-12.46990817 10.37494755 -12.8653286 8.82809942 -13 6 C-11.75546977 3.18343158 -10.6422684 1.48723809 -8.1875 -0.375 C-5.22763629 -1.22067535 -2.96538789 -0.67395179 0 0 Z " fill="#FFFFFF" transform="translate(125,94)"></path><path d="M0 0 C1.65 0.33 3.3 0.66 5 1 C5.67031719 2.9570868 6.33614683 4.91571113 7 6.875 C7.556875 8.51082031 7.556875 8.51082031 8.125 10.1796875 C9 13 9 13 9 15 C7.35 15 5.7 15 4 15 C4 14.01 4 13.02 4 12 C2.68 12 1.36 12 0 12 C0 12.99 0 13.98 0 15 C-1.65 15.33 -3.3 15.66 -5 16 C-4.54548816 14.26982492 -4.08621143 12.54090123 -3.625 10.8125 C-3.36976562 9.84957031 -3.11453125 8.88664062 -2.8515625 7.89453125 C-2.05233704 5.17789793 -1.0968638 2.60862825 0 0 Z " fill="#FFFFFF" transform="translate(53,93)"></path><path d="M0 0 C1.23556641 0.01740234 1.23556641 0.01740234 2.49609375 0.03515625 C3.32238281 0.04417969 4.14867187 0.05320312 5 0.0625 C5.63808594 0.07410156 6.27617188 0.08570312 6.93359375 0.09765625 C6.93359375 1.41765625 6.93359375 2.73765625 6.93359375 4.09765625 C5.28359375 4.09765625 3.63359375 4.09765625 1.93359375 4.09765625 C1.93359375 4.75765625 1.93359375 5.41765625 1.93359375 6.09765625 C3.58359375 6.09765625 5.23359375 6.09765625 6.93359375 6.09765625 C6.93359375 7.08765625 6.93359375 8.07765625 6.93359375 9.09765625 C5.28359375 9.09765625 3.63359375 9.09765625 1.93359375 9.09765625 C1.93359375 9.75765625 1.93359375 10.41765625 1.93359375 11.09765625 C3.58359375 11.09765625 5.23359375 11.09765625 6.93359375 11.09765625 C6.93359375 12.41765625 6.93359375 13.73765625 6.93359375 15.09765625 C3.96359375 15.09765625 0.99359375 15.09765625 -2.06640625 15.09765625 C-3.43893356 12.35260162 -3.1986988 10.09438213 -3.19140625 7.03515625 C-3.19398437 5.95105469 -3.1965625 4.86695312 -3.19921875 3.75 C-3.01858588 0.14265529 -3.01858588 0.14265529 0 0 Z " fill="#FFFFFF" transform="translate(36.06640625,92.90234375)"></path><path d="M0 0 C0.99 0 1.98 0 3 0 C3.33 1.65 3.66 3.3 4 5 C4.66 3.35 5.32 1.7 6 0 C6.99 0.33 7.98 0.66 9 1 C9.6875 3.0625 9.6875 3.0625 10 5 C10.66 3.35 11.32 1.7 12 0 C12.66 0 13.32 0 14 0 C13.49202991 4.3177458 12.80317221 8.03302114 11 12 C10.01 11.67 9.02 11.34 8 11 C8 9.68 8 8.36 8 7 C7.34 7 6.68 7 6 7 C5.67 8.65 5.34 10.3 5 12 C4.01 11.67 3.02 11.34 2 11 C1.34 7.37 0.68 3.74 0 0 Z " fill="#FFFFFF" transform="translate(75,112)"></path><path d="M0 0 C1.32 0 2.64 0 4 0 C4 3.63 4 7.26 4 11 C5.65 11 7.3 11 9 11 C9 12.32 9 13.64 9 15 C6.03 15 3.06 15 0 15 C0 10.05 0 5.1 0 0 Z " fill="#FFFFFF" transform="translate(68,93)"></path><path d="M0 0 C0.99 0 1.98 0 3 0 C3.6708712 1.6232687 4.33657029 3.24867578 5 4.875 C5.556875 6.23238281 5.556875 6.23238281 6.125 7.6171875 C7 10 7 10 7 12 C6.01 12 5.02 12 4 12 C3.67 11.34 3.34 10.68 3 10 C2.01 10 1.02 10 0 10 C-0.33 10.66 -0.66 11.32 -1 12 C-1.99 12 -2.98 12 -4 12 C-3.52309796 10.37433394 -3.04340334 8.74948689 -2.5625 7.125 C-2.29566406 6.22007813 -2.02882813 5.31515625 -1.75390625 4.3828125 C-1 2 -1 2 0 0 Z M1 4 C2 6 2 6 2 6 Z " fill="#FFFFFF" transform="translate(94,112)"></path><path d="M0 0 C0.66 0 1.32 0 2 0 C2 1.65 2 3.3 2 5 C3.32 5 4.64 5 6 5 C6 3.35 6 1.7 6 0 C6.99 0 7.98 0 9 0 C9 3.96 9 7.92 9 12 C8.01 12 7.02 12 6 12 C6 10.68 6 9.36 6 8 C4.68 7.67 3.36 7.34 2 7 C2 8.65 2 10.3 2 12 C1.34 12 0.68 12 0 12 C0 8.04 0 4.08 0 0 Z " fill="#FFFFFF" transform="translate(63,112)"></path><path d="M0 0 C0.99 0 1.98 0 3 0 C3.50559908 1.43554025 4.0042749 2.8735202 4.5 4.3125 C4.7784375 5.11300781 5.056875 5.91351563 5.34375 6.73828125 C6 9 6 9 6 12 C5.01 11.67 4.02 11.34 3 11 C3 10.34 3 9.68 3 9 C1.68 9 0.36 9 -1 9 C-1 9.99 -1 10.98 -1 12 C-1.99 12 -2.98 12 -4 12 C-3.52494322 10.18641846 -3.04483958 8.37415821 -2.5625 6.5625 C-2.29566406 5.55316406 -2.02882812 4.54382813 -1.75390625 3.50390625 C-1 1 -1 1 0 0 Z " fill="#FFFFFF" transform="translate(44,112)"></path><path d="M0 0 C1.98 0 3.96 0 6 0 C6.66 0.66 7.32 1.32 8 2 C7.875 4.5 7.875 4.5 7 7 C4.9375 8.3125 4.9375 8.3125 3 9 C3 9.99 3 10.98 3 12 C2.01 12 1.02 12 0 12 C0 8.04 0 4.08 0 0 Z M2 2 C2.66 3.32 3.32 4.64 4 6 C4 4.68 4 3.36 4 2 C3.34 2 2.68 2 2 2 Z " fill="#FFFFFF" transform="translate(31,112)"></path><path d="M0 0 C1.32 0 2.64 0 4 0 C4 4.95 4 9.9 4 15 C2.68 15 1.36 15 0 15 C0 10.05 0 5.1 0 0 Z " fill="#FFFFFF" transform="translate(83,93)"></path><path d="M0 0 C3.875 1.75 3.875 1.75 5 4 C5.66 3.01 6.32 2.02 7 1 C7.99 1 8.98 1 10 1 C9.690625 1.680625 9.38125 2.36125 9.0625 3.0625 C7.86629351 6.36965912 7.40994603 9.51545878 7 13 C6.01 13 5.02 13 4 13 C3.566875 11.453125 3.566875 11.453125 3.125 9.875 C2.17691202 6.54992003 1.11743406 3.27248547 0 0 Z " fill="#FFFFFF" transform="translate(101,111)"></path><path d="M0 0 C2.97 0 5.94 0 9 0 C9 0.99 9 1.98 9 3 C8.34 3 7.68 3 7 3 C6.67 5.97 6.34 8.94 6 12 C5.01 12 4.02 12 3 12 C2.67 9.03 2.34 6.06 2 3 C1.34 3 0.68 3 0 3 C0 2.01 0 1.02 0 0 Z " fill="#FFFFFF" transform="translate(51,112)"></path><path d="M0 0 C1.66611905 -0.042721 3.33382885 -0.04063832 5 0 C6 1 6 1 6.0625 3.5625 C6.041875 4.366875 6.02125 5.17125 6 6 C3.69 6 1.38 6 -1 6 C-0.67 4.02 -0.34 2.04 0 0 Z " fill="#FFFFFF" transform="translate(50,128)"></path><path d="M0 0 C1.32 0 2.64 0 4 0 C4 1.98 4 3.96 4 6 C2.68 6 1.36 6 0 6 C-0.38218767 4.34385343 -0.71395102 2.67542976 -1 1 C-0.67 0.67 -0.34 0.34 0 0 Z " fill="#FFFFFF" transform="translate(81,128)"></path><path d="M0 0 C1.32 0 2.64 0 4 0 C4 1.98 4 3.96 4 6 C2.68 6 1.36 6 0 6 C0 4.02 0 2.04 0 0 Z " fill="#FFFFFF" transform="translate(87,128)"></path><path d="M0 0 C0.99 0 1.98 0 3 0 C3.33 1.98 3.66 3.96 4 6 C2.35 6 0.7 6 -1 6 C-0.67 4.02 -0.34 2.04 0 0 Z " fill="#FFFFFF" transform="translate(75,128)"></path><path d="M0 0 C0.99 0 1.98 0 3 0 C3.33 1.98 3.66 3.96 4 6 C2.35 6 0.7 6 -1 6 C-0.67 4.02 -0.34 2.04 0 0 Z " fill="#FFFFFF" transform="translate(58,128)"></path><path d="M0 0 C2.64 0 5.28 0 8 0 C8 0.99 8 1.98 8 3 C5.36 3 2.72 3 0 3 C0 2.01 0 1.02 0 0 Z " fill="#FFFFFF" transform="translate(23,84)"></path><path d="M0 0 C1.32 0 2.64 0 4 0 C4 1.65 4 3.3 4 5 C2.68 5.33 1.36 5.66 0 6 C0 4.02 0 2.04 0 0 Z " fill="#FFFFFF" transform="translate(69,128)"></path><path d="M0 0 C0.99 0 1.98 0 3 0 C3 1.98 3 3.96 3 6 C1.68 6 0.36 6 -1 6 C-1.042721 4.33388095 -1.04063832 2.66617115 -1 1 C-0.67 0.67 -0.34 0.34 0 0 Z " fill="#FFFFFF" transform="translate(64,128)"></path><path d="M0 0 C2.64 0 5.28 0 8 0 C8 0.99 8 1.98 8 3 C5.36 3 2.72 3 0 3 C0 2.01 0 1.02 0 0 Z " fill="#FFFFFF" transform="translate(109,84)"></path><path d="M0 0 C1.65 0 3.3 0 5 0 C5 0.66 5 1.32 5 2 C3.35 2 1.7 2 0 2 C0 1.34 0 0.68 0 0 Z " fill="#FFFFFF" transform="translate(112,118)"></path><path d="M0 0 C1.65 0 3.3 0 5 0 C5 0.66 5 1.32 5 2 C3.35 2 1.7 2 0 2 C0 1.34 0 0.68 0 0 Z " fill="#FFFFFF" transform="translate(23,118)"></path><path d="M0 0 C2 1 2 1 2 1 Z " fill="#FFFFFF" transform="translate(77,33)"></path><path d="M0 0 C2 1 2 1 2 1 Z " fill="#FFFFFF" transform="translate(61,33)"></path></svg>