<svg xmlns="http://www.w3.org/2000/svg" width="612" height="612"><path d="M0 0 C8.18762393 3.02098771 13.80950108 8.8456055 17.8125 16.4375 C20.09347166 23.28041497 20.12275112 29.96906513 19.87890625 37.09375 C19.84348976 38.34194519 19.84348976 38.34194519 19.80735779 39.61535645 C19.73147375 42.24377801 19.64713135 44.87184704 19.5625 47.5 C19.50920372 49.29425423 19.456464 51.08852508 19.40429688 52.8828125 C19.27596208 57.25542678 19.14004678 61.6277458 19 66 C19.90165894 66.3863562 19.90165894 66.3863562 20.8215332 66.78051758 C30.16379339 70.84528317 37.55829346 75.45364564 42 85 C43.92574156 91.26682 45.5575541 97.65477819 46.41796875 104.16015625 C47.20679115 108.9537693 48.08023484 111.24544735 51.9140625 114.390625 C54.92116336 116.3985978 58.04626085 118.18397128 61.19726562 119.95458984 C69.61990748 124.83890085 76.96031895 131.3368335 84 138 C84.78503906 138.7321875 85.57007813 139.464375 86.37890625 140.21875 C99.0735028 152.4193098 108.30817204 167.92954557 109.18847656 185.83325195 C109.18764023 189.25448178 109.14586959 192.66670103 109.05493164 196.08627319 C108.6910081 210.42101924 109.47935355 224.2602222 111.72460938 238.44995117 C112.06654756 241.6162139 112 244.81532711 112 248 C144.67 248 177.34 248 211 248 C211.33 242.72 211.66 237.44 212 232 C213.06640625 224.07421875 213.06640625 224.07421875 213.37161255 221.83432007 C214.43210453 213.45694222 214.09160104 205.05115158 213.88354492 196.62817383 C213.40805682 175.70435484 218.69664809 159.52997933 233 144 C233.45584473 143.49645996 233.91168945 142.99291992 234.38134766 142.47412109 C244.43802508 131.46965853 256.34932355 121.53820848 269.875 115.125 C273.57073297 113.02039735 274.72660687 110.92003092 275.94140625 106.84960938 C276.7616901 103.58462131 277.39144769 100.31212076 278 97 C280.39252454 85.3518234 283.9355689 77.89264883 293.4609375 70.5078125 C295.70483969 69.17527981 297.72213474 68.29744173 300.15869141 67.40576172 C300.87828033 67.14092987 301.59786926 66.87609802 302.33926392 66.60324097 C303.16132828 66.30463669 303.16132828 66.30463669 304 66 C303.9388501 64.2531189 303.9388501 64.2531189 303.87646484 62.47094727 C303.72706065 58.11580642 303.5927894 53.76030364 303.46289062 49.40454102 C303.40479115 47.52582984 303.34268628 45.64723781 303.27636719 43.76879883 C303.18129788 41.05572233 303.1010406 38.34253199 303.0234375 35.62890625 C302.97514297 34.38615685 302.97514297 34.38615685 302.9258728 33.11830139 C302.67973919 23.35498081 304.55878311 15.51475304 311 8 C313.51687272 5.73481456 316.11977639 3.77827571 319 2 C319.58652344 1.62746094 320.17304688 1.25492187 320.77734375 0.87109375 C326.12616814 -1.22519419 332.38149562 -0.70931284 338 0 C341.05289586 1.67996167 341.42179017 2.72217958 343 6 C344.18382553 11.31615108 344.26070463 16.66005827 344.4296875 22.08203125 C344.5017759 24.12932515 344.57421954 26.17660657 344.64697266 28.22387695 C344.70247284 29.83487778 344.70247284 29.83487778 344.75909424 31.47842407 C345.33711685 48.10547738 346.08342325 64.68731551 347.42044067 81.27160645 C350.167481 115.39342915 352.47918326 147.20451681 329 175 C322.15370095 182.67855537 315.01189919 190.08252307 307.67578125 197.29296875 C305.32029832 199.69237677 303.16700913 202.24921457 300.98828125 204.80859375 C299.02960396 206.96737167 296.95988659 208.96667875 294.84326172 210.96923828 C286.15331405 219.28927797 283.10435021 226.66907832 280.87109375 238.34765625 C280.68961792 239.27646606 280.50814209 240.20527588 280.32116699 241.16223145 C279.87660341 243.44071137 279.43634485 245.71993443 279 248 C279.55488098 247.99111755 280.10976196 247.98223511 280.68145752 247.9730835 C286.45631611 247.88459407 292.23098216 247.82425947 298.00634766 247.78027344 C300.16170067 247.76015724 302.31699911 247.73286075 304.47216797 247.69824219 C307.57012395 247.64972514 310.66735846 247.62703127 313.765625 247.609375 C314.72929993 247.58872986 315.69297485 247.56808472 316.68585205 247.54681396 C323.40614789 247.54455959 323.40614789 247.54455959 326.63964844 250.02441406 C327.08856445 250.67635742 327.53748047 251.32830078 328 252 C327.1875 254.9375 327.1875 254.9375 326 258 C322.92838059 259.02387314 320.84585047 259.1263026 317.6288538 259.12863445 C316.50717747 259.1318589 315.38550114 259.13508335 314.22983462 259.1384055 C312.99230722 259.1368569 311.75477982 259.1353083 310.47975159 259.13371277 C309.16919027 259.13597833 307.85862895 259.13824388 306.50835365 259.14057809 C302.86294268 259.14671137 299.21755458 259.14656071 295.57213962 259.14538372 C291.64365017 259.1451801 287.71516814 259.15069473 283.78668213 259.15544128 C276.08744541 259.16375658 268.38821635 259.16649651 260.68897552 259.16705366 C254.43288196 259.16752837 248.17679093 259.16958086 241.92069817 259.17275429 C224.19533736 259.18156298 206.46998262 259.18617329 188.74461962 259.18542381 C187.78854114 259.18538386 186.83246266 259.1853439 185.84741211 259.18530273 C184.41154972 259.18524141 184.41154972 259.18524141 182.94668 259.18517885 C167.42666581 259.18477224 151.90667587 259.19434506 136.38666869 259.2084411 C120.46241792 259.22279054 104.53817899 259.22971209 88.61392158 259.22884732 C79.66897587 259.22851488 70.72405558 259.2312829 61.77911568 259.24202538 C54.1643868 259.25111152 46.54969487 259.25332118 38.93496294 259.24651595 C35.04793421 259.24324128 31.16097645 259.24322805 27.27395439 259.2518692 C23.0649927 259.26113006 18.85619673 259.25498301 14.64723206 259.24723816 C13.41193538 259.25238172 12.1766387 259.25752529 10.90390879 259.26282471 C9.77962471 259.25822592 8.65534063 259.25362712 7.49698734 259.24888897 C6.52501063 259.24910634 5.55303393 259.24932371 4.55160338 259.24954766 C1.86516777 258.98681336 0.2464342 258.48053293 -2 257 C-3 254.625 -3 254.625 -3 252 C-1.61230469 249.86035156 -1.61230469 249.86035156 1 248 C4.26796579 247.44001911 7.48985931 247.53515848 10.796875 247.609375 C11.74564514 247.61503479 12.69441528 247.62069458 13.67193604 247.62652588 C16.69847336 247.64889391 19.72382129 247.69909142 22.75 247.75 C24.8033683 247.77006443 26.85675519 247.7883153 28.91015625 247.8046875 C33.94056156 247.84876019 38.97007921 247.91779109 44 248 C43.32498146 244.34719833 42.6039235 240.70489517 41.875 237.0625 C41.68679687 236.04091797 41.49859375 235.01933594 41.3046875 233.96679688 C39.04018133 222.89194636 33.59218366 216.10201361 25.5625 208.4375 C24.22344014 207.13076896 22.8861726 205.82219853 21.55078125 204.51171875 C20.61419678 203.59398682 20.61419678 203.59398682 19.65869141 202.65771484 C17.20570232 200.20616997 14.96854295 197.60188081 12.734375 194.953125 C10.43097987 192.35921156 7.96733194 189.93600598 5.5 187.5 C-13.94480143 168.19928265 -26.30689287 147.03739388 -26.4375 119.0625 C-26.34196256 105.56252859 -25.30044903 92.14533587 -24.2109375 78.69580078 C-22.87666135 61.94889204 -22.25302123 45.18965757 -21.73486328 28.3996582 C-21.699832 27.36662567 -21.66480072 26.33359314 -21.62870789 25.26925659 C-21.56336756 23.34063997 -21.5049093 21.41177184 -21.45491028 19.48269653 C-21.23659157 13.22045599 -20.94985632 6.85676623 -17.3203125 1.5390625 C-12.2966107 -1.79315721 -5.73646567 -0.76447304 0 0 Z M-10 10 C-10.26743516 14.95475214 -10.53315008 19.9095928 -10.79708862 24.86453247 C-10.89089192 26.6251842 -10.98490728 28.38582464 -11.07913208 30.14645386 C-11.61149308 40.11696705 -12.09802215 50.08330339 -12.4375 60.0625 C-12.68345141 67.07652983 -13.1405362 74.05813692 -13.7265625 81.05078125 C-13.79398148 81.85695389 -13.86140045 82.66312653 -13.93086243 83.49372864 C-14.26832988 87.49203112 -14.61770967 91.48886805 -14.98413086 95.48461914 C-15.67174708 103.19081712 -16.14162698 110.85463497 -16.18359375 118.59375 C-16.19072891 119.30997528 -16.19786407 120.02620056 -16.20521545 120.76412964 C-16.13787361 137.96777747 -9.11685574 154.29154727 1.5546875 167.59375 C2.90281725 169.23245165 2.90281725 169.23245165 5 169 C5.21269531 169.52980469 5.42539063 170.05960938 5.64453125 170.60546875 C7.52734701 173.93159572 10.07943203 176.55164818 12.6875 179.3125 C13.22914795 179.89281982 13.7707959 180.47313965 14.32885742 181.07104492 C17.62495232 184.58802995 20.98819404 188.02344633 24.4296875 191.3984375 C26.17913223 193.18269706 27.80715582 195.04396124 29.4375 196.9375 C33.07296484 201.14049215 36.79031987 205.36128798 41 209 C41.66 209 42.32 209 43 209 C43.2475 209.70125 43.495 210.4025 43.75 211.125 C44.89012109 214.07044299 44.89012109 214.07044299 46.9375 216.5 C52.65998551 224.82939557 53.17697283 238.88486413 55 248 C70.51 248 86.02 248 102 248 C100.68999508 236.93112046 100.68999508 236.93112046 99.3671875 225.86376953 C98.16782714 215.68272445 97.48970566 206.19448683 99 196 C100.05942556 180.90318583 94.43815056 165.61634265 84.85546875 154.0390625 C74.19428639 141.91846783 61.53931034 132.75673302 48.04003906 124.05786133 C46.94900879 123.35052856 46.94900879 123.35052856 45.8359375 122.62890625 C45.19188965 122.21713135 44.5478418 121.80535645 43.88427734 121.38110352 C39.29872537 118.02006859 37.52426983 115.59209614 36.47265625 109.94921875 C36.23740234 108.77552734 36.00214844 107.60183594 35.75976562 106.39257812 C35.29718532 103.93455339 34.83623146 101.47622197 34.37695312 99.01757812 C32.89344555 91.63237829 31.59510381 85.57889892 25.3815918 80.73950195 C21.30365404 78.15217938 17.69647756 77.38338592 13 77 C12.69094597 84.94541196 13.51369575 92.69374918 14.54418945 100.55957031 C14.81275374 102.62695327 15.06406808 104.69597111 15.31445312 106.765625 C16.56773446 116.74464146 18.81117569 124.5789959 24.125 133.125 C24.51244385 133.75736572 24.8998877 134.38973145 25.29907227 135.04125977 C26.52460321 137.03265502 27.76179834 139.0164637 29 141 C29.41717285 141.67627441 29.8343457 142.35254883 30.26416016 143.04931641 C31.47980486 145.01770572 32.70630675 146.97880644 33.9375 148.9375 C34.31471191 149.54674316 34.69192383 150.15598633 35.08056641 150.78369141 C35.99952643 152.22513986 36.99315095 153.61850944 38 155 C38.66 155 39.32 155 40 155 C40.1546875 156.11375 40.1546875 156.11375 40.3125 157.25 C40.8117379 160.03807548 40.8117379 160.03807548 42.5625 162 C44.38506339 164.53574037 44.48281486 165.94217252 44 169 C41 171 41 171 38.49438477 170.86279297 C35.46593308 169.81526941 34.76257644 168.8883908 33.08984375 166.1953125 C32.58050293 165.39319336 32.07116211 164.59107422 31.54638672 163.76464844 C31.0154541 162.89356445 30.48452148 162.02248047 29.9375 161.125 C29.37820801 160.23329102 28.81891602 159.34158203 28.24267578 158.42285156 C27.0727388 156.55607764 25.90877221 154.68555006 24.75048828 152.81152344 C23.05987312 150.09616441 21.33335706 147.40819195 19.58984375 144.7265625 C18.51804025 143.06783039 17.44641829 141.40898096 16.375 139.75 C15.87863037 138.98961426 15.38226074 138.22922852 14.87084961 137.44580078 C14.17294312 136.35114502 14.17294312 136.35114502 13.4609375 135.234375 C13.05665527 134.60756836 12.65237305 133.98076172 12.23583984 133.33496094 C8.94329006 127.11411027 7.44939971 120.98927194 6.61328125 114.0390625 C6.50654587 113.20845306 6.39981049 112.37784363 6.2898407 111.52206421 C6.06771232 109.77636446 5.85031263 108.03005704 5.63745117 106.28320312 C5.31404515 103.63763985 4.97365803 100.99467529 4.63085938 98.3515625 C2.07139525 78.27158185 2.07139525 78.27158185 3 74 C4.24259293 72.55328096 5.4904313 71.10689059 6.83349609 69.75292969 C9.49865084 65.74794621 8.78991723 60.26841686 8.8125 55.625 C8.83473633 54.46629395 8.85697266 53.30758789 8.87988281 52.11376953 C8.92046979 49.80192221 8.95048597 47.4898619 8.96923828 45.17773438 C8.99560261 42.45425685 9.06081902 39.73749077 9.15234375 37.015625 C9.39232188 28.49543365 9.2556849 22.06960612 3.75 15.1875 C-0.63532555 11.69917286 -4.38089718 10 -10 10 Z M319.25 15.1875 C313.2559922 22.68000975 313.6179788 30.18521745 313.92626953 39.35351562 C314.01222969 42.43897297 314.03356064 45.52283598 314.05859375 48.609375 C314.09964998 50.94795103 314.14262254 53.28649418 314.1875 55.625 C314.19297852 56.75147949 314.19845703 57.87795898 314.20410156 59.03857422 C314.19299592 65.71531196 314.19299592 65.71531196 317.55078125 71.1484375 C320.59766819 74.69584973 320.55478778 76.24327141 320.31445312 80.765625 C320.21068359 81.83296875 320.10691406 82.9003125 320 84 C319.93449951 84.67546875 319.86899902 85.3509375 319.80151367 86.046875 C319.30570767 90.99741471 318.71499583 95.93275888 318.08349609 100.86767578 C317.7509793 103.4922703 317.43958326 106.11883616 317.12890625 108.74609375 C315.62228639 120.97149049 313.04870129 130.58869412 306.0625 140.875 C305.09160834 142.33016935 304.12159638 143.78592592 303.15234375 145.2421875 C302.64300293 146.00370117 302.13366211 146.76521484 301.60888672 147.54980469 C299.88400445 150.17665118 298.22161331 152.8365608 296.56640625 155.5078125 C295.9933374 156.42191895 295.42026855 157.33602539 294.82983398 158.27783203 C293.70992831 160.06602453 292.60097871 161.86113455 291.50415039 163.66357422 C290.98973389 164.47584473 290.47531738 165.28811523 289.9453125 166.125 C289.49687988 166.84945312 289.04844727 167.57390625 288.58642578 168.3203125 C286.48245578 170.54796925 285.02790137 170.83936236 282 171 C281.01 170.34 280.02 169.68 279 169 C278.28922033 165.34456172 278.97030853 164.04639293 281 160.875 C281.66 159.92625 282.32 158.9775 283 158 C283 157.01 283 156.02 283 155 C283.66 155 284.32 155 285 155 C286.61147379 152.65437653 288.1008775 150.31223889 289.5625 147.875 C290.45847451 146.40424008 291.35563421 144.93420158 292.25390625 143.46484375 C292.70910645 142.71831543 293.16430664 141.97178711 293.63330078 141.20263672 C294.91800158 139.13215251 296.24008647 137.09492227 297.58984375 135.06640625 C297.99581787 134.45361816 298.40179199 133.84083008 298.82006836 133.20947266 C299.93775369 131.53097895 301.06242481 129.8571431 302.1875 128.18359375 C305.2841136 122.74449874 306.26380497 117.03892365 307.0703125 110.88671875 C307.15626678 110.23226273 307.24222107 109.5778067 307.33078003 108.90351868 C307.50981982 107.52822896 307.68614818 106.15258375 307.85986328 104.77661133 C308.12315269 102.70205563 308.39888621 100.62941884 308.67578125 98.55664062 C309.61486966 91.34562117 310.29323639 84.27769285 310 77 C303.01601013 78.24461835 297.85049871 79.70621508 293.015625 85.29296875 C289.12239551 91.31119535 288.65981042 99.34451138 287.37695312 106.25585938 C285.51588208 115.50036216 283.12641716 118.91686667 275.375 124.1640625 C273.58514519 125.32051739 271.79339107 126.47403666 270 127.625 C261.44663291 133.23470443 253.44529846 138.98247519 246 146 C245.51354004 146.4552002 245.02708008 146.91040039 244.52587891 147.37939453 C232.31970206 159.01182854 225.22417337 173.52179573 223.796875 190.40234375 C223.72660585 193.45319594 224.0532487 196.35942872 224.5 199.375 C225.9658152 210.00216018 224.27110179 220.55700483 223 231.125 C222.34 236.69375 221.68 242.2625 221 248 C236.51 248 252.02 248 268 248 C269.47859739 240.13526505 269.47859739 240.13526505 270.93066406 232.265625 C272.53096823 224.01564291 274.83285687 217.71728607 280 211 C280 210.34 280 209.68 280 209 C280.81017578 208.67902344 280.81017578 208.67902344 281.63671875 208.3515625 C284.85048947 206.51360437 287.24895787 204.00314549 289.8125 201.375 C290.61361206 200.56421997 290.61361206 200.56421997 291.4309082 199.73706055 C294.85531493 196.24611001 298.12029192 192.65492511 301.2890625 188.9296875 C303.29300759 186.66953026 305.41248209 184.55894624 307.5625 182.4375 C311.26536114 178.77268196 314.75415345 175.0781149 318 171 C318 170.34 318 169.68 318 169 C318.56847656 168.80148437 319.13695312 168.60296875 319.72265625 168.3984375 C322.89387632 166.45110168 324.51366585 163.71896731 326.4375 160.625 C327.02845459 159.68333984 327.02845459 159.68333984 327.63134766 158.72265625 C335.24683588 146.29689055 339.25486138 133.14469301 339.16015625 118.57421875 C339.15716522 117.78990982 339.15417419 117.00560089 339.15109253 116.19752502 C339.07851119 108.9673249 338.519341 101.82040334 337.83197021 94.62670898 C336.10319542 76.3407478 335.3061829 58.04069633 334.64697266 39.68920898 C334.57475313 37.68863177 334.50233086 35.68806187 334.4296875 33.6875 C334.37834152 32.26843102 334.37834152 32.26843102 334.32595825 30.82069397 C334.06212869 23.86210236 333.6406214 16.93535064 333 10 C327.38089718 10 323.63532555 11.69917286 319.25 15.1875 Z " fill="#FFFFFF" transform="translate(144,120)"></path><path d="M0 0 C10.28538984 4.24626186 17.57832993 17.26677984 22 27 C25.72702426 36.23663611 28.1690586 45.02554274 28 55 C28.66 55 29.32 55 30 55 C30.0544452 52.79194476 30.09299283 50.58349446 30.125 48.375 C30.14820313 47.14523438 30.17140625 45.91546875 30.1953125 44.6484375 C30.00011941 41.00223065 29.30404048 38.38866856 28 35 C27.69320312 34.0821875 27.38640625 33.164375 27.0703125 32.21875 C25.23559549 26.94204323 23.37696992 22.46242454 20 18 C21.75 16.4375 21.75 16.4375 24 15 C26.67016518 15.21851651 27.71857834 15.68906865 29.52734375 17.6875 C34.6885766 26.15134999 39 36.97923941 39 47 C39.83402344 46.60167969 40.66804687 46.20335937 41.52734375 45.79296875 C55.31289724 39.30286281 67.61881941 35.46448501 83 36 C82.63192218 50.87034379 80.78499789 64.4258927 73.953125 77.86328125 C72.79631132 80.06668644 72.79631132 80.06668644 73 83 C77.07722011 78.06441777 78.67048638 74.38613208 79.54296875 68.0390625 C79.69378906 67.36617188 79.84460938 66.69328125 80 66 C80.66 65.67 81.32 65.34 82 65 C84.35981813 65.93578995 86.69631264 66.93347808 89 68 C87.26375242 74.4188547 85.14819255 80.13784836 82 86 C82.66644531 86.14695312 83.33289063 86.29390625 84.01953125 86.4453125 C94.74699529 89.05591214 103.45468299 94.09518797 112 101 C110.44175595 110.32811848 100.06179502 118.48008162 93 124 C75.49733941 136.23463054 53.53401072 140.05608637 32.578125 136.3515625 C21.29055454 133.56539004 10.75777322 128.67786735 2 121 C-1.49641528 122.62720997 -4.59413962 124.69526418 -7.8125 126.8125 C-24.098882 137.17035653 -44.55030881 139.6876261 -63.421875 136.3515625 C-81.9391715 131.78083741 -95.97440817 121.50587014 -108 107 C-108.598125 106.30519531 -109.19625 105.61039062 -109.8125 104.89453125 C-110.4003125 103.95673828 -110.4003125 103.95673828 -111 103 C-108.91592836 96.74778507 -101.51237842 94.12227974 -95.9375 91.3125 C-91.68255373 89.19207926 -87.5286257 87.43943255 -83 86 C-82.01 85.505 -82.01 85.505 -81 85 C-82.24726689 81.77789388 -83.62157829 78.63858947 -85.0625 75.5 C-86.47921307 72.34531178 -87.55387471 69.45747102 -88 66 C-84.77208445 63.8480563 -83.71599191 63.79913557 -80 64 C-79.84144531 64.64066406 -79.68289062 65.28132813 -79.51953125 65.94140625 C-77.88927597 71.98505981 -75.80875556 76.0589117 -72 81 C-72 81.66 -72 82.32 -72 83 C-71.01 82.67 -70.02 82.34 -69 82 C-69.31453125 81.44054687 -69.6290625 80.88109375 -69.953125 80.3046875 C-75.7252065 69.49072758 -78.24013917 58.2507322 -79.60546875 46.1796875 C-79.90884496 43.1287632 -79.90884496 43.1287632 -80.609375 40.7421875 C-81.19905747 38.11220369 -80.11868527 36.36898057 -79 34 C-78.34 34 -77.68 34 -77 34 C-77 34.66 -77 35.32 -77 36 C-75.72125 35.95875 -74.4425 35.9175 -73.125 35.875 C-63.37435153 35.92070616 -55.68873254 38.78155739 -47 43 C-45.27401973 43.77794183 -43.54509283 44.54939877 -41.8125 45.3125 C-41.07644531 45.63863281 -40.34039062 45.96476562 -39.58203125 46.30078125 C-39.05996094 46.53152344 -38.53789062 46.76226562 -38 47 C-37.938125 45.989375 -37.87625 44.97875 -37.8125 43.9375 C-36.47037662 33.46148137 -32.53647948 23.28852553 -26 15 C-23.03824877 15.61277612 -21.61941217 16.25372522 -19 18 C-19.39832031 18.58265625 -19.79664063 19.1653125 -20.20703125 19.765625 C-24.44376725 26.32174203 -26.39433047 32.41061235 -28 40 C-28.33 40.99 -28.66 41.98 -29 43 C-29.068991 45.06145107 -29.08467727 47.12501401 -29.0625 49.1875 C-29.05347656 50.27417969 -29.04445313 51.36085937 -29.03515625 52.48046875 C-29.02355469 53.31191406 -29.01195312 54.14335938 -29 55 C-28.34 55 -27.68 55 -27 55 C-26.84144531 53.92363281 -26.68289063 52.84726563 -26.51953125 51.73828125 C-23.22846353 30.64001303 -14.87252114 15.14115452 0 0 Z M-1.8828125 9.66015625 C-15.19291036 23.92097539 -21.84430059 41.40782482 -22 61 C-21.80641016 66.72656187 -21.80641016 66.72656187 -19.89453125 72.05859375 C-19 74 -19 74 -20 77 C-17.05782195 90.62920714 -9.71608026 102.23985589 0 112 C9.86638288 107.60302502 14.61101361 96.26227473 19 87 C20.59472877 82.74569161 21.20206847 79.54654064 21 75 C21 71.81674382 21.59357502 70.74987571 23 68 C26.44853663 50.75731686 20.23168223 32.42225843 11 18 C8.21544787 14.44398999 5.35767964 11.02943397 2 8 C-0.16834496 7.77954525 -0.16834496 7.77954525 -1.8828125 9.66015625 Z M-73 44 C-73.45534347 60.42879254 -67.15075406 75.79161523 -57.26171875 88.7421875 C-56.06086256 90.23533655 -56.06086256 90.23533655 -54 90 C-53.94199219 90.56074219 -53.88398438 91.12148437 -53.82421875 91.69921875 C-50.74157745 100.30431697 -37.90498963 105.94485133 -30.12890625 109.625 C-27.43795125 110.80754202 -24.73928957 111.93500518 -22 113 C-26.65593237 114.83925094 -30.36148363 115.57307715 -35.171875 113.890625 C-44.50530327 109.02295188 -53.17361768 102.86665476 -59.5625 94.4375 C-61.42974554 92.21627426 -62.41038776 91.15929875 -65.2265625 90.3984375 C-73.82644455 90.09812416 -82.758691 92.4517398 -90 97 C-91.155 97.474375 -92.31 97.94875 -93.5 98.4375 C-96.85808627 99.93664565 -99.25240531 101.58544709 -102 104 C-97.13438882 115.34441966 -84.34190965 122.66431157 -73.62109375 127.53515625 C-55.67826616 134.53673744 -38.12449944 134.36110766 -20.203125 127.42578125 C-13.62228783 124.49650617 -7.97966448 121.23878729 -3 116 C-3.4846875 115.51273437 -3.969375 115.02546875 -4.46875 114.5234375 C-15.57897931 102.77223342 -23.14594533 87.82160103 -24.6875 71.625 C-25.54214916 65.46820702 -28.58606001 62.75239312 -33.296875 58.9375 C-41.3286441 53.18062504 -62.43308037 38.71654019 -73 44 Z M36.83984375 57.2265625 C30.55265793 62.20203329 27.84296165 64.80841241 26.6875 72.8125 C23.97213597 89.54725323 16.84078756 103.82090422 5 116 C8.77852684 120.17894876 12.51242668 122.67295174 17.5625 125.125 C18.62259277 125.64429077 18.62259277 125.64429077 19.70410156 126.17407227 C36.59175648 134.19208029 54.6328662 134.70079965 72.3125 128.75 C82.9540494 124.6322351 90.79919215 118.86696965 99 111 C99.86044922 110.19949219 99.86044922 110.19949219 100.73828125 109.3828125 C101.87271644 108.30270238 102.94633132 107.15903554 104 106 C104 105.34 104 104.68 104 104 C94.77517467 96.49044831 80.27669329 90.2640034 68.1328125 90.3984375 C64.34906639 91.46564794 62.50828016 94.52517914 60.11328125 97.4921875 C53.69535645 105.1082831 44.36821878 111.65665274 35 115 C31.36889253 114.98605208 28.36815606 114.33053569 25 113 C26.57587891 112.36384766 26.57587891 112.36384766 28.18359375 111.71484375 C36.34708663 108.33681316 43.35010829 104.94129669 50 99 C50.6909375 98.43796875 51.381875 97.8759375 52.09375 97.296875 C53.77688743 95.92097694 55.39604988 94.46744373 57 93 C57 92.34 57 91.68 57 91 C57.680625 90.360625 58.36125 89.72125 59.0625 89.0625 C69.00127393 79.37712257 75.43895092 63.51117946 76.11328125 49.67578125 C76.12318846 47.78350331 76.0687656 45.891054 76 44 C63.64911713 40.48779037 46.70722389 50.27426747 36.83984375 57.2265625 Z " fill="#FFFFFF" transform="translate(306,51)"></path><path d="M0 0 C0.81033691 0.19335938 1.62067383 0.38671875 2.45556641 0.5859375 C36.76792248 8.95260043 71.05774491 27.27063996 89.96484375 58.23730469 C98.30415491 72.43773548 103.44658295 86.34214665 104 103 C100.7 103 97.4 103 94 103 C93.78085937 101.87464844 93.56171875 100.74929687 93.3359375 99.58984375 C90.19606026 84.11764089 85.67331627 70.76877748 76 58 C75.60184082 57.47164551 75.20368164 56.94329102 74.79345703 56.39892578 C55.13154086 30.69423211 21.87359588 13.8836203 -9.86914062 9.28076172 C-51.97617099 3.73274557 -95.23374248 10.09884063 -129.83984375 36.13671875 C-132.26381998 38.0503842 -134.63401235 40.015485 -137 42 C-137.5878125 42.44214844 -138.175625 42.88429687 -138.78125 43.33984375 C-156.90663516 57.40411667 -166.83930373 80.87512612 -170 103 C-173.3 103 -176.6 103 -180 103 C-179.5022423 76.57359116 -165.93713 54.32828142 -147.66113281 36.17285156 C-136.34362647 25.36291091 -123.25748668 17.31619661 -109 11 C-108.07670898 10.58693604 -108.07670898 10.58693604 -107.13476562 10.16552734 C-97.04811167 5.71978906 -86.70763349 2.54259982 -76 0 C-75.32710938 -0.16661133 -74.65421875 -0.33322266 -73.9609375 -0.50488281 C-51.30813329 -5.86826734 -22.56371023 -5.64476232 0 0 Z " fill="#FFFFFF" transform="translate(344,21)"></path><path d="M0 0 C5.28 0 10.56 0 16 0 C19.14151235 3.60692159 20.20542963 5.72063989 22 10 C23.647622 13.07613019 25.39369623 16.09537416 27.125 19.125 C27.96507504 20.62529487 28.80111736 22.12785603 29.6328125 23.6328125 C30.17252686 24.60565186 30.17252686 24.60565186 30.72314453 25.59814453 C32.54815533 29.03111896 34.2612661 32.5225322 36 36 C36 24.12 36 12.24 36 0 C40.29 0 44.58 0 49 0 C49 19.8 49 39.6 49 60 C44.05 60 39.1 60 34 60 C32.13226469 56.55466302 30.26601601 53.10857226 28.40307617 49.66064453 C27.4675062 47.93049061 26.52968848 46.20155274 25.59179688 44.47265625 C24.98271484 43.34472656 24.37363281 42.21679688 23.74609375 41.0546875 C23.19622803 40.03874512 22.6463623 39.02280273 22.07983398 37.97607422 C18.96831387 32.02769804 16.00215711 26.00431422 13 20 C13 33.2 13 46.4 13 60 C8.71 60 4.42 60 0 60 C0 40.2 0 20.4 0 0 Z " fill="#FFFFFF" transform="translate(414,411)"></path><path d="M0 0 C1.15957207 3.47871621 0.77456651 4.34219645 -0.4375 7.6875 C-0.86869141 8.89986328 -0.86869141 8.89986328 -1.30859375 10.13671875 C-1.65083984 11.05904297 -1.65083984 11.05904297 -2 12 C-2.886875 11.835 -3.77375 11.67 -4.6875 11.5 C-12.58310161 10.42478596 -21.35172056 9.36773037 -28.41015625 13.6953125 C-32.50678011 17.05716107 -33.7857251 20.02473026 -34.33984375 25.1328125 C-34.55068965 32.53772064 -33.90791835 37.39017032 -29.1875 43.25 C-23.63991126 47.68807099 -17.7677566 47.18291234 -11 47 C-11 43.04 -11 39.08 -11 35 C-13.97 35 -16.94 35 -20 35 C-20 31.37 -20 27.74 -20 24 C-12.41 24 -4.82 24 3 24 C3 34.56 3 45.12 3 56 C-4.33528929 58.20058679 -9.57705752 59.52719149 -16.9375 59.4375 C-17.80777832 59.43065186 -18.67805664 59.42380371 -19.57470703 59.41674805 C-27.71407175 59.21398537 -34.67814222 57.6342376 -41.375 52.8125 C-48.95996351 44.68575338 -50.48938222 36.67345936 -50.27734375 25.8359375 C-49.67804158 17.54699766 -46.29401532 10.48278668 -40 5 C-28.4235556 -3.21272282 -13.36782159 -4.2331435 0 0 Z " fill="#FFFFFF" transform="translate(544,412)"></path><path d="M0 0 C4.62 0 9.24 0 14 0 C14 7.59 14 15.18 14 23 C20.93 23 27.86 23 35 23 C35 15.41 35 7.82 35 0 C39.62 0 44.24 0 49 0 C49 19.8 49 39.6 49 60 C44.38 60 39.76 60 35 60 C35 51.75 35 43.5 35 35 C28.07 35 21.14 35 14 35 C14 43.25 14 51.5 14 60 C9.38 60 4.76 60 0 60 C0 40.2 0 20.4 0 0 Z " fill="#FFFFFF" transform="translate(66,411)"></path><path d="M0 0 C6.27 0 12.54 0 19 0 C21.34838315 7.6749242 23.69559595 15.35020327 26.04072571 23.02612209 C27.12960189 26.58998816 28.21899895 30.15369329 29.30957031 33.71704102 C30.36116961 37.15311839 31.41142169 40.58960483 32.46072388 44.02638435 C32.86214817 45.34031021 33.26406532 46.6540856 33.66647339 47.96771049 C34.22815555 49.80156603 34.78795442 51.63599807 35.34765625 53.47045898 C35.66742432 54.51636703 35.98719238 55.56227509 36.31665039 56.63987732 C37 59 37 59 37 60 C32.05 60 27.1 60 22 60 C19.52394523 54.71024662 18.14611735 49.73058676 17 44 C11.72 44 6.44 44 1 44 C-0.32 49.28 -1.64 54.56 -3 60 C-7.95 60 -12.9 60 -18 60 C-15.44306579 49.0335933 -12.14253271 38.3143425 -8.84716797 27.55126953 C-7.86707187 24.34909721 -6.89219594 21.14536844 -5.91796875 17.94140625 C-5.29717856 15.90615738 -4.6760956 13.87099779 -4.0546875 11.8359375 C-3.76302704 10.87771088 -3.47136658 9.91948425 -3.17086792 8.93222046 C-2.900336 8.05014923 -2.62980408 7.168078 -2.35107422 6.25927734 C-2.11363495 5.48272797 -1.87619568 4.70617859 -1.63156128 3.90609741 C-1 2 -1 2 0 0 Z M8 13 C7.16267257 16.12394391 6.33082018 19.24931974 5.5 22.375 C5.26152344 23.26445312 5.02304688 24.15390625 4.77734375 25.0703125 C4.55175781 25.92109375 4.32617188 26.771875 4.09375 27.6484375 C3.88427734 28.43395996 3.67480469 29.21948242 3.45898438 30.02880859 C2.92440679 31.98732829 2.92440679 31.98732829 3 34 C6.96 34 10.92 34 15 34 C13.27806003 26.8662487 11.42393534 19.92552955 9 13 C8.67 13 8.34 13 8 13 Z " fill="#FFFFFF" transform="translate(232,411)"></path><path d="M0 0 C1.21042969 0.65355469 1.21042969 0.65355469 2.4453125 1.3203125 C9.40314765 5.52256937 14.46818688 11.19927849 17 19 C18.04161941 27.97985579 17.43823012 35.59870144 12 43 C5.85731452 50.08771401 -3.66662325 55.38641683 -13.11547852 56.17700195 C-33.28715755 56.72312335 -33.28715755 56.72312335 -42 52 C-42.80695313 51.56429687 -43.61390625 51.12859375 -44.4453125 50.6796875 C-51.40314765 46.47743063 -56.46818688 40.80072151 -59 33 C-60.04161941 24.02014421 -59.43823012 16.40129856 -54 9 C-41.5034956 -5.41904354 -16.6128222 -9.00560395 0 0 Z M-39 9 C-39.64195312 9.37382812 -40.28390625 9.74765625 -40.9453125 10.1328125 C-45.32204662 12.89802945 -48.36040368 16.02334293 -50 21 C-50.89773688 26.18316008 -50.62377588 30.59879415 -48.0625 35.25 C-43.70157219 41.37016573 -37.17679986 45.11136846 -30 47 C-20.72953627 48.00627057 -11.00857953 48.25885265 -3 43 C-2.35804688 42.62617188 -1.71609375 42.25234375 -1.0546875 41.8671875 C3.32204662 39.10197055 6.36040368 35.97665707 8 31 C8.89773688 25.81683992 8.62377588 21.40120585 6.0625 16.75 C1.70157219 10.62983427 -4.82320014 6.88863154 -12 5 C-21.27046373 3.99372943 -30.99142047 3.74114735 -39 9 Z " fill="#FFFFFF" transform="translate(327,198)"></path><path d="M0 0 C12.21 0 24.42 0 37 0 C37 3.96 37 7.92 37 12 C29.41 12 21.82 12 14 12 C14 15.63 14 19.26 14 23 C21.26 23 28.52 23 36 23 C36 26.96 36 30.92 36 35 C28.74 35 21.48 35 14 35 C14 39.29 14 43.58 14 48 C21.92 48 29.84 48 38 48 C38 51.96 38 55.92 38 60 C25.46 60 12.92 60 0 60 C0 40.2 0 20.4 0 0 Z " fill="#FFFFFF" transform="translate(149,411)"></path><path d="M0 0 C1.31327271 0.01027222 1.31327271 0.01027222 2.65307617 0.02075195 C9.40986235 0.18808911 15.11693845 1.18670955 21.125 4.4375 C21.785 4.77652344 22.445 5.11554688 23.125 5.46484375 C28.49533729 8.71713853 31.88110208 13.64273205 34.125 19.4375 C35.34505271 26.11913094 34.92221679 31.84954716 31.6875 37.875 C26.4267464 45.48209911 18.9313327 49.25452422 10.125 51.4375 C6.82000596 51.84958322 3.57790138 51.91514163 0.25 51.875 C-1.06327271 51.86472778 -1.06327271 51.86472778 -2.40307617 51.85424805 C-9.15986235 51.68691089 -14.86693845 50.68829045 -20.875 47.4375 C-21.535 47.09847656 -22.195 46.75945312 -22.875 46.41015625 C-28.24533729 43.15786147 -31.63110208 38.23226795 -33.875 32.4375 C-35.09505271 25.75586906 -34.67221679 20.02545284 -31.4375 14 C-24.11114185 3.40601732 -12.36299792 -0.14912426 0 0 Z M-23.875 19.4375 C-25.84820514 23.61158779 -26.11296778 25.53322243 -24.9375 30 C-21.99939233 35.73446454 -16.53540114 39.9758799 -10.4375 41.96484375 C-1.18042014 43.67232342 9.09415186 43.84636692 17.125 38.4375 C22.7313401 34.49868112 22.7313401 34.49868112 25.43359375 28.51953125 C25.68571653 24.08064227 25.45577763 21.16922566 22.625 17.625 C17.22555076 12.09729781 10.28045769 9.35034996 2.62866211 9.14501953 C-7.97803541 9.04526621 -16.66859111 10.95220728 -23.875 19.4375 Z " fill="#FFFFFF" transform="translate(305.875,261.5625)"></path><path d="M0 0 C4.9634405 3.43943108 9.18362906 7.09679445 11 13 C11.71396621 18.95574343 11.80580699 24.37516554 8.3125 29.4453125 C2.54007321 36.28288947 -4.23525459 40.32367059 -13.27587891 41.22753906 C-25.53533137 41.99090422 -36.5970472 41.65779085 -46.5 33.625 C-51.25576319 29.00567264 -53.13793116 25.21655932 -53.4375 18.5625 C-53.21021052 11.57334836 -50.88930504 7.59765775 -45.9375 2.8125 C-34.04517759 -6.46749218 -13.07815899 -7.68905554 0 0 Z M-43 12.875 C-44.54493897 16.15799531 -44.49409832 18.41778715 -44 22 C-40.43241343 28.06489716 -35.62318586 30.08354592 -29 32 C-20.67717463 33.9693041 -11.90080339 33.02474367 -4.5 28.625 C-0.61031442 25.88895849 -0.61031442 25.88895849 2 22 C2.64340127 17.65704141 2.36204886 15.61548306 0.125 11.8125 C-4.83622085 6.57098419 -12.62059923 4.46541702 -19.6484375 3.96875 C-28.91947763 4.09195319 -36.21863811 6.51747323 -43 12.875 Z " fill="#FFFFFF" transform="translate(327,324)"></path><path d="M0 0 C2.64 0 5.28 0 8 0 C8.23710693 1.02472412 8.47421387 2.04944824 8.71850586 3.10522461 C9.59636773 6.89481517 10.47897136 10.68328791 11.36303711 14.47143555 C11.74552474 16.11338523 12.12671321 17.75563809 12.5065918 19.39819336 C13.05178735 21.75454703 13.60159472 24.10978278 14.15234375 26.46484375 C14.3221727 27.20339096 14.49200165 27.94193817 14.66697693 28.7028656 C15.24875931 32.13753282 15.24875931 32.13753282 17 35 C19.97 23.45 22.94 11.9 26 0 C28.64 0 31.28 0 34 0 C34.23710693 0.98919434 34.47421387 1.97838867 34.71850586 2.99755859 C35.59755463 6.66205279 36.47980694 10.32576939 37.36303711 13.98925781 C37.74509936 15.57596087 38.12628858 17.16287441 38.5065918 18.75 C39.05288834 21.02920329 39.60230404 23.30763506 40.15234375 25.5859375 C40.3221727 26.29744965 40.49200165 27.00896179 40.66697693 27.74203491 C41.55479562 31.46771609 41.55479562 31.46771609 43 35 C45.97 23.45 48.94 11.9 52 0 C54.31 0 56.62 0 59 0 C58.333641 5.82459916 56.91636895 11.24956734 55.27734375 16.87109375 C55.01240616 17.793423 54.74746857 18.71575226 54.47450256 19.66603088 C53.63319392 22.59113072 52.78545097 25.5143196 51.9375 28.4375 C51.36350531 30.42891344 50.78993311 32.4204487 50.21679688 34.41210938 C48.81608357 39.27616315 47.40959945 44.13851434 46 49 C43.69 49 41.38 49 39 49 C36.36009811 41.58766286 34.53226574 34.11062765 32.8125 26.4375 C32.53986328 25.23802734 32.26722656 24.03855469 31.98632812 22.80273438 C31.32018716 19.8693768 30.65818168 16.93515179 30 14 C28.89417051 17.77034766 27.79065053 21.54136772 26.6875 25.3125 C26.37876953 26.36501953 26.07003906 27.41753906 25.75195312 28.50195312 C23.76034129 35.31536205 21.84172534 42.14454672 20 49 C17.36 49 14.72 49 12 49 C8.04 32.83 4.08 16.66 0 0 Z " fill="#FFFFFF" transform="translate(329,492)"></path><path d="M0 0 C4.62 0 9.24 0 14 0 C14 15.84 14 31.68 14 48 C21.92 48 29.84 48 38 48 C38 51.96 38 55.92 38 60 C25.46 60 12.92 60 0 60 C0 40.2 0 20.4 0 0 Z " fill="#FFFFFF" transform="translate(298,411)"></path><path d="M0 0 C4.62 0 9.24 0 14 0 C14 19.8 14 39.6 14 60 C9.38 60 4.76 60 0 60 C0 40.2 0 20.4 0 0 Z " fill="#FFFFFF" transform="translate(366,411)"></path><path d="M0 0 C2.31 0 4.62 0 7 0 C7 6.6 7 13.2 7 20 C14.59 20 22.18 20 30 20 C30 13.4 30 6.8 30 0 C32.31 0 34.62 0 37 0 C37 16.17 37 32.34 37 49 C34.69 49 32.38 49 30 49 C30 41.41 30 33.82 30 26 C22.41 26 14.82 26 7 26 C7 33.59 7 41.18 7 49 C4.69 49 2.38 49 0 49 C0 32.83 0 16.66 0 0 Z " fill="#FFFFFF" transform="translate(276,492)"></path><path d="M0 0 C2.97 0 5.94 0 9 0 C11.12420996 6.01179997 13.24193823 12.02582921 15.35375977 18.04199219 C16.07269581 20.08721056 16.79338191 22.13181465 17.51586914 24.17578125 C18.55558437 27.1181825 19.58893276 30.06275412 20.62109375 33.0078125 C20.94403915 33.9174173 21.26698456 34.82702209 21.59971619 35.76419067 C23.13636379 40.16803585 24.43388314 44.34377256 25 49 C22.69 49 20.38 49 18 49 C17.34865075 47.43979133 16.70417036 45.87671421 16.0625 44.3125 C15.70285156 43.44238281 15.34320313 42.57226562 14.97265625 41.67578125 C14 39 14 39 13 34 C7.39 34 1.78 34 -4 34 C-4.433125 36.041875 -4.433125 36.041875 -4.875 38.125 C-5.69731147 41.84302258 -6.71188034 45.41166665 -8 49 C-10.64 49 -13.28 49 -16 49 C-14.36491174 43.95014603 -12.72913953 38.90051427 -11.09277344 33.85107422 C-10.53790465 32.13856784 -9.98321253 30.42600421 -9.42871094 28.71337891 C-6.32534662 19.12880066 -3.21170213 9.54895046 0 0 Z M4 8 C2.02 14.6 0.04 21.2 -2 28 C2.29 28 6.58 28 11 28 C9.20532905 21.24861881 7.29690099 14.59748156 5 8 C4.67 8 4.34 8 4 8 Z " fill="#FFFFFF" transform="translate(413,492)"></path><path d="M0 0 C2.64 0 5.28 0 8 0 C12.55281107 10.17402194 15.93265337 20.64395758 19.3125 31.25 C19.86736614 32.97801634 20.42270142 34.70588212 20.97851562 36.43359375 C22.32441681 40.62068236 23.6639822 44.80974786 25 49 C22.36 49 19.72 49 17 49 C15.35 44.38 13.7 39.76 12 35 C6.72 35 1.44 35 -4 35 C-5.65 39.62 -7.3 44.24 -9 49 C-11.31 49 -13.62 49 -16 49 C-14.68863329 42.58105692 -12.94416644 36.53626758 -10.7421875 30.37109375 C-10.43427277 29.49598648 -10.12635803 28.62087921 -9.80911255 27.71925354 C-8.83592261 24.95692936 -7.85559529 22.19720289 -6.875 19.4375 C-6.2091596 17.55160022 -5.54379051 15.66553396 -4.87890625 13.77929688 C-3.25804319 9.18425656 -1.63077929 4.59152991 0 0 Z M4 9 C1.29928888 15.27980887 -0.70024676 21.28460827 -2 28 C1.96 28 5.92 28 10 28 C8.64746536 21.54945018 6.96939767 15.28894321 5 9 C4.67 9 4.34 9 4 9 Z " fill="#FFFFFF" transform="translate(193,492)"></path><path d="M0 0 C1.1147168 -0.0309375 1.1147168 -0.0309375 2.25195312 -0.0625 C8.57171403 -0.10681033 13.39827415 1.02637093 18.1875 5.4375 C21.0164009 10.33367463 21.07650938 14.51927186 20.25 19.9375 C18.08308535 24.93082507 14.9073903 27.250166 10.0625 29.5625 C5.57087439 30.51265157 1.40130118 30.37402165 -3.1875 30.25 C-3.1875 36.52 -3.1875 42.79 -3.1875 49.25 C-5.4975 49.25 -7.8075 49.25 -10.1875 49.25 C-10.1875 33.41 -10.1875 17.57 -10.1875 1.25 C-6.97932025 -0.35408988 -3.5207767 0.02380914 0 0 Z M-3.1875 6.25 C-3.1875 12.19 -3.1875 18.13 -3.1875 24.25 C4.02587647 24.9559847 4.02587647 24.9559847 10.375 22.125 C13.0910269 18.92148109 13.89959664 17.43063874 13.8125 13.25 C12.4385627 10.37127423 11.06260563 8.50010563 8.8125 6.25 C6.71402357 5.75082791 6.71402357 5.75082791 4.375 5.5625 C3.20130859 5.43294922 3.20130859 5.43294922 2.00390625 5.30078125 C-0.36782006 5.12226183 -0.36782006 5.12226183 -3.1875 6.25 Z " fill="#FFFFFF" transform="translate(147.1875,491.75)"></path><path d="M0 0 C3.1875 -0.5 3.1875 -0.5 7 0 C9.30987115 2.29667188 10.57490731 5.09703341 12 8 C12.54140625 9.05703125 13.0828125 10.1140625 13.640625 11.203125 C15.12124781 14.12285783 16.57144346 17.0545226 18 20 C21.07980691 16.21253519 23.330995 12.0044875 25.6875 7.75 C26.31108398 6.63238281 26.31108398 6.63238281 26.94726562 5.4921875 C27.96744233 3.66290513 28.98407487 1.83164698 30 0 C32.64 0 35.28 0 38 0 C35.77559369 4.76491246 33.49619009 9.36059282 30.4765625 13.67578125 C22.61513507 25.23587161 21.47084866 35.15902318 22 49 C19.69 49 17.38 49 15 49 C15.07863281 47.7625 15.15726562 46.525 15.23828125 45.25 C15.64945517 29.76899968 10.40649075 19.27855938 2.29101562 6.32397461 C1.09644723 4.17361597 0.45170077 2.40295113 0 0 Z " fill="#FFFFFF" transform="translate(446,492)"></path><path d="M0 0 C11.88 0 23.76 0 36 0 C36 1.98 36 3.96 36 6 C31.38 6 26.76 6 22 6 C22 20.19 22 34.38 22 49 C19.69 49 17.38 49 15 49 C15 34.81 15 20.62 15 6 C10.05 6 5.1 6 0 6 C0 4.02 0 2.04 0 0 Z " fill="#FFFFFF" transform="translate(224,492)"></path><path d="M0 0 C2.31 0 4.62 0 7 0 C7.99 3.3 8.98 6.6 10 10 C10.99 6.7 11.98 3.4 13 0 C15.31 0 17.62 0 20 0 C20.93854006 7.03905044 21.10808032 13.90272572 21 21 C19.35 21 17.7 21 16 21 C15.505 16.05 15.505 16.05 15 11 C14.01 13.97 13.02 16.94 12 20 C10.35 20 8.7 20 7 20 C6.34 17.69 5.68 15.38 5 13 C4.67 15.64 4.34 18.28 4 21 C2.35 21 0.7 21 -1 21 C-1.18451025 6.21867882 -1.18451025 6.21867882 0 0 Z " fill="#FFFFFF" transform="translate(220,561)"></path><path d="M0 0 C0.33 0.66 0.66 1.32 1 2 C0.67 2.99 0.34 3.98 0 5 C-4.455 5.495 -4.455 5.495 -9 6 C-10.04214691 10.61507774 -10.04214691 10.61507774 -9 15 C-6.47266765 15.65555119 -6.47266765 15.65555119 -4 16 C-4 15.01 -4 14.02 -4 13 C-4.99 13 -5.98 13 -7 13 C-7 11.68 -7 10.36 -7 9 C-4.36 9 -1.72 9 1 9 C1 12.63 1 16.26 1 20 C-2.19598065 21.59799033 -5.52322756 21.36773555 -9 21 C-12.13109512 19.67798206 -13.67315518 18.38131896 -15.875 15.8125 C-17.43322294 11.91694265 -17.40363492 8.95569842 -16 5 C-11.36246139 -0.70773982 -7.04988884 -0.6269664 0 0 Z " fill="#FFFFFF" transform="translate(369,561)"></path><path d="M0 0 C2.31 0 4.62 0 7 0 C8.00736628 2.93502595 9.00460504 5.87339461 10 8.8125 C10.28617187 9.64587891 10.57234375 10.47925781 10.8671875 11.33789062 C11.13789063 12.14033203 11.40859375 12.94277344 11.6875 13.76953125 C11.93886719 14.50792236 12.19023437 15.24631348 12.44921875 16.00708008 C13 18 13 18 13 21 C11.35 21 9.7 21 8 21 C7.773125 20.360625 7.54625 19.72125 7.3125 19.0625 C6.14749104 16.72806339 6.14749104 16.72806339 3.375 16.25 C2.59125 16.1675 1.8075 16.085 1 16 C0.67 17.65 0.34 19.3 0 21 C-1.98 21 -3.96 21 -6 21 C-4.02 14.07 -2.04 7.14 0 0 Z M3 6 C2.67 7.98 2.34 9.96 2 12 C2.99 12 3.98 12 5 12 C4.67 10.02 4.34 8.04 4 6 C3.67 6 3.34 6 3 6 Z " fill="#FFFFFF" transform="translate(331,561)"></path><path d="M0 0 C2.31 0 4.62 0 7 0 C8.00736628 2.93502595 9.00460504 5.87339461 10 8.8125 C10.28617187 9.64587891 10.57234375 10.47925781 10.8671875 11.33789062 C11.13789063 12.14033203 11.40859375 12.94277344 11.6875 13.76953125 C11.93886719 14.50792236 12.19023437 15.24631348 12.44921875 16.00708008 C13 18 13 18 13 21 C11.35 21 9.7 21 8 21 C7.773125 20.360625 7.54625 19.72125 7.3125 19.0625 C6.14749104 16.72806339 6.14749104 16.72806339 3.375 16.25 C2.59125 16.1675 1.8075 16.085 1 16 C0.67 17.65 0.34 19.3 0 21 C-1.98 21 -3.96 21 -6 21 C-4.02 14.07 -2.04 7.14 0 0 Z M3 6 C2.67 7.98 2.34 9.96 2 12 C2.99 12 3.98 12 5 12 C4.67 10.02 4.34 8.04 4 6 C3.67 6 3.34 6 3 6 Z " fill="#FFFFFF" transform="translate(256,561)"></path><path d="M0 0 C4.29 0 8.58 0 13 0 C13 1.65 13 3.3 13 5 C10.36 5 7.72 5 5 5 C5 5.99 5 6.98 5 8 C7.31 8 9.62 8 12 8 C12 9.32 12 10.64 12 12 C9.69 12 7.38 12 5 12 C5 13.32 5 14.64 5 16 C7.64 16 10.28 16 13 16 C13 17.65 13 19.3 13 21 C8.71 21 4.42 21 0 21 C0 14.07 0 7.14 0 0 Z " fill="#FFFFFF" transform="translate(382,561)"></path><path d="M0 0 C1.68609375 -0.02900391 1.68609375 -0.02900391 3.40625 -0.05859375 C7.09426429 0.53279238 8.29683057 1.46919045 10.5 4.4375 C10.33849795 7.82904295 9.91703243 9.02046757 7.5 11.4375 C4.7877875 11.66254349 2.21126815 11.76184995 -0.5 11.75 C-1.23734375 11.76611328 -1.9746875 11.78222656 -2.734375 11.79882812 C-4.875 11.80078125 -4.875 11.80078125 -8.5 11.4375 C-10.64762184 8.21606724 -11.061068 7.1779533 -10.5 3.4375 C-7.25167602 0.16563744 -4.4980636 0.00515833 0 0 Z " fill="#FFFFFF" transform="translate(125.5,367.5625)"></path><path d="M0 0 C1.13308594 -0.01675781 2.26617187 -0.03351563 3.43359375 -0.05078125 C6.78575713 0.33842124 8.1286897 1.04612629 10.5625 3.3125 C9.6875 10.1875 9.6875 10.1875 8.5625 11.3125 C5.92127716 11.49271767 3.33103102 11.59051916 0.6875 11.625 C-0.04597656 11.65400391 -0.77945312 11.68300781 -1.53515625 11.71289062 C-6.93312252 11.77680097 -6.93312252 11.77680097 -9.453125 9.45703125 C-10.75492827 6.62095985 -10.50649616 5.21406101 -9.4375 2.3125 C-5.89151732 -0.05148846 -4.20420901 0.01431626 0 0 Z " fill="#FFFFFF" transform="translate(487.4375,366.6875)"></path><path d="M0 0 C1.22589844 0.01353516 1.22589844 0.01353516 2.4765625 0.02734375 C3.41628906 0.04474609 3.41628906 0.04474609 4.375 0.0625 C4.705 0.7225 5.035 1.3825 5.375 2.0625 C5.045 3.0525 4.715 4.0425 4.375 5.0625 C2.395 5.0625 0.415 5.0625 -1.625 5.0625 C-1.955 5.7225 -2.285 6.3825 -2.625 7.0625 C-1.201875 7.495625 -1.201875 7.495625 0.25 7.9375 C3.375 9.0625 3.375 9.0625 5.375 11.0625 C5.8125 14.5 5.8125 14.5 5.375 18.0625 C2.48568647 20.77670362 0.64035735 21.04450967 -3.3125 21.3125 C-6.625 21.0625 -6.625 21.0625 -8.625 20.0625 C-8.295 18.4125 -7.965 16.7625 -7.625 15.0625 C-4.985 15.3925 -2.345 15.7225 0.375 16.0625 C-1.415267 14.08378384 -2.85555572 12.94173272 -5.25 11.6875 C-7.625 10.0625 -7.625 10.0625 -8.5625 7.625 C-8.63234497 4.76135638 -8.22269672 3.41700043 -6.625 1.0625 C-4.21954362 -0.14022819 -2.67503047 -0.03821472 0 0 Z " fill="#FFFFFF" transform="translate(310.625,560.9375)"></path><path d="M0 0 C0.33 0.99 0.66 1.98 1 3 C0.67 3.66 0.34 4.32 0 5 C-1.98 5 -3.96 5 -6 5 C-6.33 5.66 -6.66 6.32 -7 7 C-6.071875 7.2475 -5.14375 7.495 -4.1875 7.75 C-0.79558777 9.08016166 0.42210855 9.75139995 2 13 C1.92418253 16.10851614 1.45257769 17.49520181 -0.625 19.8125 C-3.90103721 21.45051861 -6.38586357 21.32855786 -10 21 C-10.99 20.34 -11.98 19.68 -13 19 C-12.67 17.68 -12.34 16.36 -12 15 C-9.36 15.33 -6.72 15.66 -4 16 C-4 15.01 -4 14.02 -4 13 C-4.763125 12.896875 -5.52625 12.79375 -6.3125 12.6875 C-9.26644989 11.9318384 -10.33726664 11.53785617 -12 9 C-12.4375 6 -12.4375 6 -12 3 C-8.79128544 -1.01089319 -4.71739485 -0.23586974 0 0 Z " fill="#FFFFFF" transform="translate(291,561)"></path><path d="M0 0 C5.94 0 11.88 0 18 0 C18 1.98 18 3.96 18 6 C12.06 6 6.12 6 0 6 C0 4.02 0 2.04 0 0 Z " fill="#FFFFFF" transform="translate(493,518)"></path><path d="M0 0 C5.94 0 11.88 0 18 0 C18 1.98 18 3.96 18 6 C12.06 6 6.12 6 0 6 C0 4.02 0 2.04 0 0 Z " fill="#FFFFFF" transform="translate(101,518)"></path><path d="M0 0 C1.1875 2.75 1.1875 2.75 2 6 C1 8.375 1 8.375 -1 10 C-4 10.5 -4 10.5 -7 10 C-9 8.375 -9 8.375 -10 6 C-9.375 2.8125 -9.375 2.8125 -8 0 C-4.71023192 -1.09658936 -3.28696233 -0.79953138 0 0 Z " fill="#FFFFFF" transform="translate(111,369)"></path><path d="M0 0 C1.1875 2.75 1.1875 2.75 2 6 C1 8.375 1 8.375 -1 10 C-4 10.5 -4 10.5 -7 10 C-9 8.375 -9 8.375 -10 6 C-9.3125 2.8125 -9.3125 2.8125 -8 0 C-5.13822943 -1.43088528 -3.06624227 -0.59991697 0 0 Z " fill="#FFFFFF" transform="translate(510,368)"></path><path d="M0 0 C0.99 0.33 1.98 0.66 3 1 C3 1.66 3 2.32 3 3 C2.01 2.67 1.02 2.34 0 2 C0 1.34 0 0.68 0 0 Z " fill="#FFFFFF" transform="translate(426,169)"></path><path d="M0 0 C0.66 0 1.32 0 2 0 C1.67 0.99 1.34 1.98 1 3 C0.34 3 -0.32 3 -1 3 C-0.67 2.01 -0.34 1.02 0 0 Z " fill="#FFFFFF" transform="translate(185,169)"></path><path d="M0 0 C0.99 0.33 1.98 0.66 3 1 C3 1.66 3 2.32 3 3 C2.01 2.67 1.02 2.34 0 2 C0 1.34 0 0.68 0 0 Z " fill="#FFFFFF" transform="translate(315,56)"></path><path d="M0 0 C0.66 0 1.32 0 2 0 C1.67 0.99 1.34 1.98 1 3 C0.34 3 -0.32 3 -1 3 C-0.67 2.01 -0.34 1.02 0 0 Z " fill="#FFFFFF" transform="translate(296,56)"></path><path d="M0 0 C1.485 0.99 1.485 0.99 3 2 C2.67 2.66 2.34 3.32 2 4 C1.34 2.68 0.68 1.36 0 0 Z " fill="#FFFFFF" transform="translate(289,127)"></path><path d="M0 0 C0 0.99 0 1.98 0 3 C-0.99 3.495 -0.99 3.495 -2 4 C-1.34 2.68 -0.68 1.36 0 0 Z " fill="#FFFFFF" transform="translate(323,127)"></path><path d="M0 0 C0.66 0 1.32 0 2 0 C2 0.66 2 1.32 2 2 C1.34 2 0.68 2 0 2 C0 1.34 0 0.68 0 0 Z " fill="#FFFFFF" transform="translate(340,145)"></path><path d="M0 0 C0.66 0 1.32 0 2 0 C2 0.66 2 1.32 2 2 C1.34 2 0.68 2 0 2 C0 1.34 0 0.68 0 0 Z " fill="#FFFFFF" transform="translate(271,145)"></path><path d="M0 0 C0.66 0 1.32 0 2 0 C1.67 0.66 1.34 1.32 1 2 C0.67 1.34 0.34 0.68 0 0 Z " fill="#FFFFFF" transform="translate(405,96)"></path><path d="M0 0 C0.99 0.495 0.99 0.495 2 1 C1.01 1.495 1.01 1.495 0 2 C0 1.34 0 0.68 0 0 Z " fill="#FFFFFF" transform="translate(206,96)"></path><path d="M0 0 C0.66 0.66 1.32 1.32 2 2 C1.34 2 0.68 2 0 2 C0 1.34 0 0.68 0 0 Z " fill="#FFFFFF" transform="translate(318,60)"></path><path d="M0 0 C0.33 0.66 0.66 1.32 1 2 C0.34 1.67 -0.32 1.34 -1 1 C-0.67 0.67 -0.34 0.34 0 0 Z " fill="#FFFFFF" transform="translate(294,60)"></path><path d="M0 0 C2 1 2 1 2 1 Z " fill="#FFFFFF" transform="translate(423,167)"></path><path d="M0 0 C2 1 2 1 2 1 Z " fill="#FFFFFF" transform="translate(188,167)"></path><path d="" fill="#FFFFFF" transform="translate(0,0)"></path><path d="" fill="#FFFFFF" transform="translate(0,0)"></path><path d="" fill="#FFFFFF" transform="translate(0,0)"></path><path d="" fill="#FFFFFF" transform="translate(0,0)"></path><path d="" fill="#FFFFFF" transform="translate(0,0)"></path><path d="" fill="#FFFFFF" transform="translate(0,0)"></path></svg>