<svg xmlns="http://www.w3.org/2000/svg" width="80" height="69" viewBox="0 0 80 69"><path d="M 26.444 17.374 C 6.764 26.538, 6.308 56.916, 25.883 54.710 C 32.235 53.994, 36 49.779, 36 43.384 C 36 39.504, 35.478 38.278, 32.600 35.400 C 30.730 33.530, 28.480 32, 27.600 32 C 23.826 32, 27.042 24.161, 32.070 21.104 C 34.232 19.789, 34.571 19.072, 33.895 17.244 C 32.869 14.471, 32.670 14.475, 26.444 17.374 M 59.332 16.936 C 47.763 22.189, 40.979 36.926, 45.362 47.282 C 47.330 51.931, 50.313 54.168, 55.294 54.730 C 63.804 55.689, 70.031 49.308, 68.507 41.188 C 67.807 37.452, 63.135 32, 60.636 32 C 56.687 32, 58.582 26.212, 64.033 21.625 C 66.315 19.706, 66.970 18.480, 66.502 17.006 C 65.718 14.537, 64.639 14.527, 59.332 16.936" stroke="none" fill="#7c0e70" fill-rule="evenodd"></path></svg>